<?xml version="1.0" encoding="utf-8"?>
<!-- Generator: Adobe Illustrator 26.0.2, SVG Export Plug-In . SVG Version: 6.00 Build 0)  -->
<svg version="1.1" id="Layer_1" xmlns="http://www.w3.org/2000/svg" xmlns:xlink="http://www.w3.org/1999/xlink" x="0px" y="0px"
	 viewBox="0 0 16 16" style="enable-background:new 0 0 16 16;" xml:space="preserve">
<style type="text/css">
	.st0{fill:url(#SVGID_1_);}
	.st1{fill:#051D49;}
</style>
<g>
	<linearGradient id="SVGID_1_" gradientUnits="userSpaceOnUse" x1="1.7729" y1="8" x2="14.4713" y2="8">
		<stop  offset="0.0855" style="stop-color:#F3D46A"/>
		<stop  offset="0.0877" style="stop-color:#EDCD65"/>
		<stop  offset="0.0992" style="stop-color:#D2AA4C"/>
		<stop  offset="0.1102" style="stop-color:#BF913A"/>
		<stop  offset="0.1202" style="stop-color:#B38230"/>
		<stop  offset="0.1283" style="stop-color:#AF7D2C"/>
		<stop  offset="0.1582" style="stop-color:#B88935"/>
		<stop  offset="0.2524" style="stop-color:#D2A94C"/>
		<stop  offset="0.3429" style="stop-color:#E4C15C"/>
		<stop  offset="0.4274" style="stop-color:#EFCF67"/>
		<stop  offset="0.4997" style="stop-color:#F3D46A"/>
		<stop  offset="0.5745" style="stop-color:#EFD067"/>
		<stop  offset="0.6566" style="stop-color:#E5C25D"/>
		<stop  offset="0.7421" style="stop-color:#D4AC4E"/>
		<stop  offset="0.8295" style="stop-color:#BC8E38"/>
		<stop  offset="0.8703" style="stop-color:#AF7D2C"/>
		<stop  offset="0.8967" style="stop-color:#E2CB73"/>
		<stop  offset="0.9089" style="stop-color:#F6EA90"/>
	</linearGradient>
	<path class="st0" d="M6.56,13.33c0.05,0.01,0.39,0.09,0.52,0.13c0.79,0.15,1.57,0.12,2.35-0.1c1.04-0.29,1.92-0.85,2.62-1.67
		c0.77-0.91,1.21-1.95,1.26-3.14c0-0.02,0.01-0.04,0.01-0.06c0.01-0.45,0.02-3.34,0.02-3.81c0-0.29,0-0.58,0-0.87
		c0-0.13-0.03-0.2-0.16-0.26c-0.89-0.39-1.82-0.69-2.78-0.87C9.91,2.58,9.42,2.53,8.93,2.5c-0.01,0-0.02,0-0.02,0
		C8.62,2.47,8.33,2.46,8.04,2.45c-0.06,0-0.12,0-0.19,0c-0.19,0-0.38,0.02-0.58,0.03C7.16,2.48,7.05,2.48,6.94,2.49
		c-1.43,0.12-2.79,0.48-4.1,1.06C2.7,3.61,2.66,3.69,2.66,3.84c0,1.41,0,2.81,0,4.22c0,0.05,0,0.1,0,0.15
		c0,0.82,0.17,1.61,0.54,2.34C3.92,11.96,5.04,12.89,6.56,13.33z"/>
	<g>
		<path class="st1" d="M15.64,2.85c-0.21,0.31-0.63,0.64-1.33,1.08l-0.01,0v0.01v1.52l0.02-0.01c0.78-0.53,1.07-0.83,1.18-0.94
			c0.1-0.11,0.14-0.18,0.16-0.24l0,0V2.81L15.64,2.85z"/>
		<path class="st1" d="M15.64,5.41c0,0,0,0.09-0.22,0.32c-0.22,0.23-0.66,0.59-1.55,1.13c-0.23,0.14-0.52,0.3-0.82,0.47
			c-0.44,0.25-0.96,0.47-1.55,0.82c-4.61,2.69-4.02,4.94-4,5.07c0.05,0.26,0.12,0.52,0.24,0.76l0,0l0.07,0.12v0l0.02,0.04l0,0
			l0.05,0.08l0,0c0.22,0.35,0.48,0.52,0.56,0.56l-0.09,0.01l0,0c-0.1,0.01-0.26,0.02-0.47,0.02c-0.35,0-0.84-0.03-1.42-0.17l0,0l0,0
			l-0.26-0.06l0,0c-0.43-0.11-0.72-0.21-1.07-0.38l0,0l-0.16-0.07l0,0c-0.36-0.18-0.7-0.4-1.02-0.65l0,0l-0.1-0.07l0,0
			c-0.09-0.07-0.14-0.12-0.17-0.14h0l-0.03-0.02c-0.29-0.25-0.56-0.54-0.82-0.85c-0.56-0.69-0.97-1.44-1.21-2.25v0
			c-0.14-0.45-0.23-0.92-0.27-1.4c-0.02-0.2-0.03-0.39-0.03-0.59c0-1.79,0-3.57,0-5.36v0c0-0.17,0.05-0.25,0.2-0.33
			C2.73,1.86,4,1.44,5.34,1.19C6.1,1.05,6.87,0.98,7.65,0.96l0.25,0h0h0l0.25,0c0.78,0.02,1.55,0.09,2.31,0.23
			c1.33,0.24,2.61,0.67,3.83,1.27c0.11,0.06,0.17,0.12,0.19,0.22l0,0.02l0.02-0.01c0.22-0.13,0.96-0.55,1.15-0.78l0,0l0-0.02l0-0.01
			l0-0.01l-0.13-0.11l0,0l0,0c-1.56-0.79-3.21-1.3-4.93-1.57C9.73,0.06,8.89,0,8.04,0C7.9,0,7.77,0,7.64,0
			c-0.9,0.02-1.78,0.1-2.66,0.26c-1.53,0.28-3,0.77-4.4,1.46c-0.18,0.09-0.24,0.2-0.24,0.4v0c0.01,2.05,0,4.1,0.01,6.16
			c0,0.23,0.01,0.46,0.03,0.68c0.1,1.27,0.5,2.44,1.2,3.49c1.27,1.93,3.05,3.1,5.34,3.45c0.19,0.03,0.37,0.03,0.56,0.04
			c0.1,0.01,0.2,0.02,0.3,0.02c0.09,0,0.19,0.02,0.28,0.02c0.13,0,0.25-0.02,0.37-0.03c0.05,0,0.09-0.01,0.14-0.01
			c0.49-0.03,0.98-0.1,1.47-0.24c1.58-0.44,2.89-1.3,3.92-2.57c1.12-1.38,1.7-2.97,1.72-4.76l0,0l0.01-0.07l0,0l0-0.12l0-0.04
			L15.64,8.2c-0.29,0.36-0.69,0.61-1.1,0.96l0,0l0,0c0,0.02-0.23,1.44-0.68,2.2c-0.39,0.66-1.14,2.01-2.75,2.84
			c-0.32,0.16-0.68,0.25-1.03,0.25c-0.35,0-0.73-0.11-0.99-0.35c-0.41-0.39-0.89-2.29,2.27-4.24c0.58-0.36,2.24-1.32,2.52-1.48
			c1-0.59,1.78-1.1,1.79-1.36v0c0-0.57,0-1.63,0-1.63L15.64,5.41z"/>
	</g>
</g>
</svg>
