<svg width="889" height="167" viewBox="0 0 889 167" fill="none" xmlns="http://www.w3.org/2000/svg">
<g clip-path="url(#clip0_1508_2)">
<path d="M70.4306 7.93945L-0.195312 164.871H29.847L45.3953 128.537H123.861L139.475 164.871H169.946L99.1223 7.93945H70.4306ZM55.1788 105.676L84.5623 36.9936L114.045 105.676H55.1788Z" fill="#051D49"/>
<path d="M294.589 45.1624H264.316L234.867 84.3294L205.582 45.1624H174.42L219.121 104.028L172.41 164.871H203.342L234.373 123.496L265.008 164.871H296.598L249.789 103.633L294.589 45.1624Z" fill="#051D49"/>
<path d="M393.258 51.4214C384.133 46.3485 373.757 43.812 362.096 43.812C350.138 43.812 339.498 46.4144 330.143 51.652C320.787 56.8897 313.475 64.1038 308.171 73.2944C302.867 82.4849 300.199 93.0591 300.199 105.017C300.199 116.81 302.933 127.351 308.369 136.64C313.837 145.897 321.512 153.21 331.46 158.513C341.409 163.817 353.004 166.485 366.312 166.485C376.787 166.485 386.077 164.805 394.213 161.445C402.35 158.085 409.136 153.276 414.505 146.984L399.484 129.723C395.3 134.203 390.524 137.497 385.122 139.572C379.752 141.68 373.691 142.701 366.971 142.701C359.197 142.701 352.312 141.219 346.35 138.221C340.355 135.224 335.743 130.974 332.449 125.44C330.373 121.948 328.957 118.16 328.199 114.01H422.115C422.246 112.659 422.378 111.243 422.444 109.76C422.51 108.278 422.543 106.927 422.543 105.741C422.543 93.1908 419.94 82.2873 414.703 72.9979C409.531 63.6755 402.35 56.5273 393.258 51.4214ZM328.067 95.3649C328.693 90.852 329.945 86.7673 331.955 83.1438C334.853 77.8402 338.905 73.6896 344.044 70.692C349.216 67.6944 355.211 66.212 362.096 66.212C368.816 66.212 374.778 67.6944 379.917 70.692C385.089 73.6896 389.14 77.8073 392.138 83.012C394.246 86.7014 395.564 90.8191 396.091 95.332H328.067V95.3649Z" fill="#051D49"/>
<path d="M467.205 -1.48218H439.172V164.871H467.205V-1.48218Z" fill="#051D49"/>
<path d="M532.006 -1.48218H503.973V164.871H532.006V-1.48218Z" fill="#051D49"/>
<path d="M644.203 51.4214C635.079 46.3485 624.702 43.812 613.041 43.812C601.083 43.812 590.443 46.4144 581.088 51.652C571.733 56.8897 564.42 64.1038 559.116 73.2944C553.813 82.4849 551.145 93.0591 551.145 105.017C551.145 116.81 553.879 127.351 559.314 136.64C564.782 145.897 572.457 153.21 582.406 158.513C592.354 163.817 603.949 166.485 617.257 166.485C627.733 166.485 637.022 164.805 645.159 161.445C653.295 158.085 660.081 153.276 665.45 146.984L650.429 129.723C646.246 134.203 641.469 137.497 636.067 139.572C630.697 141.68 624.636 142.701 617.916 142.701C610.142 142.701 603.258 141.219 597.295 138.221C591.3 135.224 586.688 130.974 583.394 125.44C581.319 121.948 579.902 118.16 579.145 114.01H673.06C673.192 112.659 673.323 111.243 673.389 109.76C673.455 108.278 673.488 106.927 673.488 105.741C673.488 93.1908 670.886 82.2873 665.648 72.9979C660.476 63.6755 653.295 56.5273 644.203 51.4214ZM579.013 95.3649C579.639 90.852 580.89 86.7673 582.9 83.1438C585.799 77.8402 589.85 73.6896 594.989 70.692C600.161 67.6944 606.156 66.212 613.041 66.212C619.761 66.212 625.723 67.6944 630.862 70.692C636.034 73.6896 640.086 77.8073 643.083 83.012C645.192 86.7014 646.509 90.8191 647.036 95.332H579.013V95.3649Z" fill="#051D49"/>
<path d="M733.966 72.0426C739.5 69.0449 745.693 67.5626 752.578 67.5626C758.54 67.5626 764.108 68.9132 769.279 71.5814C774.451 74.2826 778.799 78.4661 782.39 84.132L803.9 71.5814C799.256 62.4567 792.503 55.5391 783.609 50.8285C774.715 46.1179 764.437 43.7791 752.776 43.7791C740.225 43.7791 729.058 46.3814 719.275 51.619C709.491 56.8567 701.816 64.0708 696.282 73.2614C690.747 82.452 687.98 93.0261 687.98 104.984C687.98 116.777 690.747 127.318 696.282 136.607C701.816 145.864 709.458 153.177 719.275 158.48C729.058 163.784 740.225 166.452 752.776 166.452C764.437 166.452 774.715 164.014 783.609 159.172C792.503 154.33 799.256 147.412 803.9 138.419L782.39 125.868C778.799 131.534 774.418 135.718 769.279 138.419C764.108 141.12 758.54 142.471 752.578 142.471C745.693 142.471 739.5 140.988 733.966 137.991C728.432 134.993 724.117 130.711 720.955 125.111C717.825 119.511 716.244 112.824 716.244 105.05C716.244 97.2755 717.825 90.5885 720.955 84.9885C724.117 79.3555 728.432 75.0402 733.966 72.0426Z" fill="#051D49"/>
<path d="M880.921 138.419C876.737 141.713 871.5 143.36 865.241 143.36C860.003 143.36 855.951 141.779 853.02 138.649C850.121 135.52 848.638 131.106 848.638 125.407V68.4846H880.69V46.0516H848.638V18.7104H820.605V126.099C820.605 139.407 824.196 149.454 831.377 156.24C838.558 163.026 848.704 166.452 861.881 166.452C866.954 166.452 871.895 165.793 876.671 164.442C881.448 163.092 885.5 161.082 888.761 158.381L880.921 138.419Z" fill="#051D49"/>
</g>
<defs>
<clipPath id="clip0_1508_2">
<rect width="889" height="167" fill="white"/>
</clipPath>
</defs>
</svg>
