<?xml version="1.0" encoding="utf-8"?>
<!-- Generator: Adobe Illustrator 26.0.2, SVG Export Plug-In . SVG Version: 6.00 Build 0)  -->
<svg version="1.1" id="Layer_1" xmlns="http://www.w3.org/2000/svg" xmlns:xlink="http://www.w3.org/1999/xlink" x="0px" y="0px"
	 viewBox="0 0 483.39 503.72" style="enable-background:new 0 0 483.39 503.72;" xml:space="preserve">
<style type="text/css">
	.st0{fill:#051D49;}
	.st1{fill:url(#SVGID_1_);}
	.st2{fill:url(#SVGID_00000107546879459497584890000012697625384140310947_);}
	.st3{fill:url(#SVGID_00000160874877190000339200000017275111055760357034_);}
	.st4{fill:url(#SVGID_00000002350017337969267970000017364571022453255338_);}
	.st5{fill:url(#SVGID_00000178183227308956065650000011268212168837150105_);}
	.st6{fill:url(#SVGID_00000018948183854303415490000000902253553342707867_);}
	.st7{fill:url(#SVGID_00000101077482417362835900000014788211943876853135_);}
</style>
<g>
	<polygon class="st0" points="42.34,91.22 148.03,52.43 260.27,40.88 390.54,66.05 435.6,84.62 456.73,79.58 457.11,102.01 
		457.06,260.85 429.05,336.33 367.6,426.29 258.63,461.78 132.72,433.72 58.73,337.16 37.42,219.15 37.42,121.76 	"/>
	<g>
		<linearGradient id="SVGID_1_" gradientUnits="userSpaceOnUse" x1="-11.7344" y1="271.0977" x2="499.9507" y2="271.0977">
			<stop  offset="0" style="stop-color:#F6EA90"/>
			<stop  offset="0.11" style="stop-color:#AF7D2C"/>
			<stop  offset="0.1318" style="stop-color:#B98A35"/>
			<stop  offset="0.1868" style="stop-color:#CEA548"/>
			<stop  offset="0.2468" style="stop-color:#DFBA57"/>
			<stop  offset="0.3137" style="stop-color:#EAC962"/>
			<stop  offset="0.3929" style="stop-color:#F1D168"/>
			<stop  offset="0.5156" style="stop-color:#F3D46A"/>
			<stop  offset="0.6097" style="stop-color:#F1D168"/>
			<stop  offset="0.6836" style="stop-color:#E9C761"/>
			<stop  offset="0.7507" style="stop-color:#DCB655"/>
			<stop  offset="0.8136" style="stop-color:#CA9F44"/>
			<stop  offset="0.8731" style="stop-color:#B2812F"/>
			<stop  offset="0.88" style="stop-color:#AF7D2C"/>
			<stop  offset="0.9532" style="stop-color:#DBB554"/>
			<stop  offset="1" style="stop-color:#F3D46A"/>
		</linearGradient>
		<path class="st1" d="M197.4,289.04c-9.64-10.08-19.76-19.69-29.42-29.75c-16.13-16.83-23.2-37.04-21.41-60.36
			c0.33-4.38,0.93-8.73,1.43-13.35c-0.7,0.36-1.04,0.45-1.26,0.66c-0.48,0.46-0.99,0.94-1.34,1.5
			c-8.83,14.05-13.21,29.35-12.61,46.01c0.73,20.55,9.24,37.41,23.25,52.15c11.48,12.09,14.06,26.71,8.93,42.7
			c-2.78,8.67-8.52,15.09-16.03,21.2c11.93,7.27,23.64,8.98,35.75,3.85c10.93-4.63,20.56-15.9,24-28.66
			C211.02,312.92,207.52,299.62,197.4,289.04z"/>
		
			<linearGradient id="SVGID_00000047040176228071827660000011132755094081404558_" gradientUnits="userSpaceOnUse" x1="-11.7344" y1="219.149" x2="499.9507" y2="219.149">
			<stop  offset="0" style="stop-color:#F6EA90"/>
			<stop  offset="0.11" style="stop-color:#AF7D2C"/>
			<stop  offset="0.1318" style="stop-color:#B98A35"/>
			<stop  offset="0.1868" style="stop-color:#CEA548"/>
			<stop  offset="0.2468" style="stop-color:#DFBA57"/>
			<stop  offset="0.3137" style="stop-color:#EAC962"/>
			<stop  offset="0.3929" style="stop-color:#F1D168"/>
			<stop  offset="0.5156" style="stop-color:#F3D46A"/>
			<stop  offset="0.6097" style="stop-color:#F1D168"/>
			<stop  offset="0.6836" style="stop-color:#E9C761"/>
			<stop  offset="0.7507" style="stop-color:#DCB655"/>
			<stop  offset="0.8136" style="stop-color:#CA9F44"/>
			<stop  offset="0.8731" style="stop-color:#B2812F"/>
			<stop  offset="0.88" style="stop-color:#AF7D2C"/>
			<stop  offset="0.9532" style="stop-color:#DBB554"/>
			<stop  offset="1" style="stop-color:#F3D46A"/>
		</linearGradient>
		<path style="fill:url(#SVGID_00000047040176228071827660000011132755094081404558_);" d="M221.31,277.07
			c0.2-6.02-0.64-11.53-3.11-15.93c-6.13-10.91-13.28-21.24-18.91-32.42c-13.03-25.85-3.21-59.94,19.63-67.38
			c-25.67-1.53-37.95,14.33-39.56,16.55c-0.11,0.16-0.18,0.25-0.19,0.26c-14.66,21.01-10.06,45.05,7.78,63.39
			c10.78,11.09,22.12,21.66,32.4,33.21C220.03,275.51,220.67,276.28,221.31,277.07z"/>
		
			<linearGradient id="SVGID_00000016073922826988048660000009464301332814811802_" gradientUnits="userSpaceOnUse" x1="-11.7344" y1="203.8483" x2="499.9507" y2="203.8483">
			<stop  offset="0.0365" style="stop-color:#F3D46A"/>
			<stop  offset="0.0411" style="stop-color:#EDCD65"/>
			<stop  offset="0.066" style="stop-color:#D2AA4C"/>
			<stop  offset="0.0895" style="stop-color:#BF913A"/>
			<stop  offset="0.1109" style="stop-color:#B38230"/>
			<stop  offset="0.1283" style="stop-color:#AF7D2C"/>
			<stop  offset="0.1582" style="stop-color:#B88935"/>
			<stop  offset="0.2524" style="stop-color:#D2A94C"/>
			<stop  offset="0.3429" style="stop-color:#E4C15C"/>
			<stop  offset="0.4274" style="stop-color:#EFCF67"/>
			<stop  offset="0.4997" style="stop-color:#F3D46A"/>
			<stop  offset="0.5691" style="stop-color:#EFD067"/>
			<stop  offset="0.6454" style="stop-color:#E5C25D"/>
			<stop  offset="0.7248" style="stop-color:#D4AC4E"/>
			<stop  offset="0.806" style="stop-color:#BC8E38"/>
			<stop  offset="0.8439" style="stop-color:#AF7D2C"/>
			<stop  offset="0.8918" style="stop-color:#E2CB73"/>
			<stop  offset="0.9141" style="stop-color:#F6EA90"/>
		</linearGradient>
		<path style="fill:url(#SVGID_00000016073922826988048660000009464301332814811802_);" d="M336.04,226.88
			c93.73-47.73,110.5-68.03,115.91-73.86c3.88-4.19,4.9-7.53,5.13-8.49c0-14.17,0-24.38,0.02-38.56
			c-7.21,11.36-23.36,23.58-55.77,42c-9.92,5.64-64.53,33.1-101.86,56.84c-17.21,10.94-39.13,30.04-44.61,35.46
			c-0.6,0.59-1.55,0.07-1.45-0.78c1.37-11.4,4.11-22.47,9.16-31.68c12.06-21.99,37.72-34.31,58.75-46.45
			c27.54-15.89,78.36-41.9,78.93-42.26c-0.22-3.68-1.62-5.8-5.42-7.49c-39.98-17.86-81.62-28.99-125.26-32.69
			c-10.27-0.87-20.51-1.32-30.72-1.37c-10.22,0.05-20.46,0.5-30.72,1.37c-43.64,3.69-85.28,14.83-125.26,32.69
			c-4.19,1.87-5.47,4.25-5.46,8.68c0.1,34.13,0.07,68.25,0.07,102.38c0.01-0.01,0.03-0.02,0.05-0.03l0,16.23
			c0.05,1.66,0.1,3.32,0.16,4.98c1.11,31.63,14.78,58.82,37.01,81.34c6.35,6.43,16.16,6.52,22.08,0.56
			c6.28-6.32,6.31-15.91-0.21-22.65c-13.13-13.57-22.39-29.24-26.83-47.77c-7.5-31.27-0.1-59.14,16.69-86
			c9.72-15.56,16.36-21.01,20.82-24.78c-4.34-5.41-8.66-10.39-12.15-15.9c-4.6-7.27-11.08-19.87-7.28-27.96
			c1.47-3.13,3.73,1.78,6.08,4.23c7.52,7.87,13.7,9.15,19.97,10.2c7.81,1.31,13.97,1.34,21.15,1.6c13.8,0.51,27.6,0.74,41.12,3.96
			c8.57,2.04,16.7,4.95,21.78,13.03c0.51,0.82,1.79,1.2,2.76,1.66c5.02,2.39,10.33,4.29,15.04,7.18
			c13.37,8.2,13.64,22.45,6.52,36.65c-0.53,1.05-5.57,9.95-7.33,8.62c-0.35-0.26-0.35-0.83-0.13-1.91
			c1.19-5.32,0.35-10.21-2.81-13.37c-5.71-5.71-16.97-3.77-26.16,4.12c-0.79,0.68-1.57,1.4-2.33,2.17c-3.84,3.9-6.57,8.31-8.05,12.6
			c-0.86,3.05-1.25,6.46-1.01,10.28c0.35,5.62,2.05,12.11,5.62,19.55c6.66,13.88,14.02,20.09,20.37,32.41
			c6.66,12.94,7.91,27.62,4.33,41.06C248.45,281.04,302.74,243.84,336.04,226.88z"/>
		
			<linearGradient id="SVGID_00000099660280927801265330000013888868279482157499_" gradientUnits="userSpaceOnUse" x1="31.4047" y1="140.0388" x2="447.0208" y2="140.0388">
			<stop  offset="0" style="stop-color:#F6EA90"/>
			<stop  offset="0.11" style="stop-color:#AF7D2C"/>
			<stop  offset="0.1318" style="stop-color:#B98A35"/>
			<stop  offset="0.1868" style="stop-color:#CEA548"/>
			<stop  offset="0.2468" style="stop-color:#DFBA57"/>
			<stop  offset="0.3137" style="stop-color:#EAC962"/>
			<stop  offset="0.3929" style="stop-color:#F1D168"/>
			<stop  offset="0.5156" style="stop-color:#F3D46A"/>
			<stop  offset="0.6097" style="stop-color:#F1D168"/>
			<stop  offset="0.6836" style="stop-color:#E9C761"/>
			<stop  offset="0.7507" style="stop-color:#DCB655"/>
			<stop  offset="0.8136" style="stop-color:#CA9F44"/>
			<stop  offset="0.8731" style="stop-color:#B2812F"/>
			<stop  offset="0.88" style="stop-color:#AF7D2C"/>
			<stop  offset="0.9532" style="stop-color:#DBB554"/>
			<stop  offset="1" style="stop-color:#F3D46A"/>
		</linearGradient>
		<path style="fill:url(#SVGID_00000099660280927801265330000013888868279482157499_);" d="M222.48,145.56
			c2.25,0,4.51,0.02,6.76-0.01c1.5-0.02,2.04-0.67,1.39-2.17c-1.92-4.38-4.69-7.81-9.71-8.52c-5.17-0.74-10.39-0.07-15.58-0.3
			c-0.1,0-0.18,0.08-0.17,0.18c0.73,5.58,5.63,10.28,11.22,10.74C218.41,145.64,222.48,145.56,222.48,145.56z"/>
		
			<linearGradient id="SVGID_00000134230508347800769400000013602420492398786967_" gradientUnits="userSpaceOnUse" x1="26.2606" y1="251.5934" x2="457.1267" y2="251.5934">
			<stop  offset="0.0365" style="stop-color:#F3D46A"/>
			<stop  offset="0.0411" style="stop-color:#EDCD65"/>
			<stop  offset="0.066" style="stop-color:#D2AA4C"/>
			<stop  offset="0.0895" style="stop-color:#BF913A"/>
			<stop  offset="0.1109" style="stop-color:#B38230"/>
			<stop  offset="0.1283" style="stop-color:#AF7D2C"/>
			<stop  offset="0.1582" style="stop-color:#B88935"/>
			<stop  offset="0.2524" style="stop-color:#D2A94C"/>
			<stop  offset="0.3429" style="stop-color:#E4C15C"/>
			<stop  offset="0.4274" style="stop-color:#EFCF67"/>
			<stop  offset="0.4997" style="stop-color:#F3D46A"/>
			<stop  offset="0.5827" style="stop-color:#EFD067"/>
			<stop  offset="0.6739" style="stop-color:#E5C25D"/>
			<stop  offset="0.7689" style="stop-color:#D4AC4E"/>
			<stop  offset="0.8659" style="stop-color:#BC8E38"/>
			<stop  offset="0.9112" style="stop-color:#AF7D2C"/>
			<stop  offset="0.9558" style="stop-color:#E2CB73"/>
			<stop  offset="0.9765" style="stop-color:#F6EA90"/>
		</linearGradient>
		<path style="fill:url(#SVGID_00000134230508347800769400000013602420492398786967_);" d="M425.95,284.76
			c-0.1,0.58-6.39,40.68-19.18,62.03c-11.05,18.46-32.01,56.51-77.62,80.05c-17.88,9.23-41.24,10.08-55.28-0.71
			c-1.26-0.97-2.4-2.06-3.47-3.22c-0.18-0.19-0.36-0.38-0.54-0.58c-0.01-0.01-0.01-0.01-0.02-0.02c-3.14-3.51-9.28-13.32-6.76-30.35
			c7.07-47.7,54.95-76.72,65.62-83.39c50.32-31.45,128.06-71.02,128.42-83.94c-0.01-15.95-0.04-50.49-0.04-50.49
			s0.02,23.66-116.61,81.97c-32.1,16.05-110.71,64.06-113.74,130.16c-0.56,12.16,2.93,23.03,7.99,33.29
			c0.75,1.52,1.57,3.01,2.47,4.47c0.46,0.75,0.95,1.49,1.44,2.22c7.29,11.42,16.52,16.3,16.52,16.3s-1.32,0.23-3.71,0.48
			c-7.8,0.82-27.43,1.88-53.47-4.07c-0.03-0.01-0.05-0.01-0.07-0.02c-2.63-0.6-5.09-1.19-7.41-1.77
			c-11.99-3.01-20.33-5.94-30.15-10.85l-4.55-2.02c-10.2-5.1-19.82-11.22-28.89-18.27c-0.98-0.74-1.9-1.44-2.71-2.07
			c-3.62-2.84-5.52-4.62-5.52-4.62l0,0c-8.17-7.15-15.84-15.13-23.01-23.9c-15.9-19.44-27.29-40.61-34.17-63.42
			c-3.92-12.71-6.43-25.91-7.52-39.57c-0.44-5.55-0.72-11.13-0.73-16.7c-0.05-50.26,0.03-100.52-0.13-150.78
			c-0.02-4.81,1.43-7.45,5.77-9.59c34.31-16.9,70.22-28.91,107.77-35.8c21.5-3.95,43.22-6,65.12-6.47c2.36-0.05,4.72-0.08,7.08-0.09
			c0,0,0.01,0,0.01,0c0,0,0.01,0,0.01,0c2.36,0.01,4.72,0.04,7.08,0.09c21.91,0.46,43.62,2.52,65.12,6.47
			c37.54,6.89,73.45,18.9,107.77,35.8c3.28,1.61,4.9,3.51,5.49,6.4c6.24-3.51,27.07-15.59,32.16-21.9c0.14-0.18,0.06-0.38-0.05-0.58
			c-0.94-1.75-2.85-2.57-3.59-2.95c-43.92-22.1-90.21-36.69-138.68-44.21c-27.35-4.24-54.88-5.81-82.59-5.22
			c-25.17,0.53-50.13,2.9-74.84,7.43C113.59,42.29,72.32,56.08,32.9,75.5c-5,2.46-6.65,5.49-6.64,11.02
			c0.19,57.75,0.09,115.51,0.15,173.26c0.01,6.4,0.32,12.81,0.84,19.19c2.85,35.58,14.02,68.47,33.59,98.08
			c35.83,54.21,85.66,87.01,149.92,96.86c29.55,4.53,58.84,2.8,87.6-5.15c44.27-12.23,81.17-36.38,110.16-72.19
			c31.9-39.41,48.28-84.73,48.54-135.72c0.01-1.09,0.01-2.19,0.01-3.28C448.94,267.77,437.63,274.81,425.95,284.76z"/>
		
			<linearGradient id="SVGID_00000121270876466939033330000006126735522189379981_" gradientUnits="userSpaceOnUse" x1="-11.7344" y1="353.6352" x2="499.9507" y2="353.6352">
			<stop  offset="0" style="stop-color:#F6EA90"/>
			<stop  offset="0.11" style="stop-color:#AF7D2C"/>
			<stop  offset="0.1318" style="stop-color:#B98A35"/>
			<stop  offset="0.1868" style="stop-color:#CEA548"/>
			<stop  offset="0.2468" style="stop-color:#DFBA57"/>
			<stop  offset="0.3137" style="stop-color:#EAC962"/>
			<stop  offset="0.3929" style="stop-color:#F1D168"/>
			<stop  offset="0.5156" style="stop-color:#F3D46A"/>
			<stop  offset="0.6097" style="stop-color:#F1D168"/>
			<stop  offset="0.6836" style="stop-color:#E9C761"/>
			<stop  offset="0.7507" style="stop-color:#DCB655"/>
			<stop  offset="0.8136" style="stop-color:#CA9F44"/>
			<stop  offset="0.8731" style="stop-color:#B2812F"/>
			<stop  offset="0.88" style="stop-color:#AF7D2C"/>
			<stop  offset="0.9532" style="stop-color:#DBB554"/>
			<stop  offset="1" style="stop-color:#F3D46A"/>
		</linearGradient>
		<path style="fill:url(#SVGID_00000121270876466939033330000006126735522189379981_);" d="M292.03,401.7
			c7.57,10.85,21.94,4.91,28.1,1.69c19.52-10.17,33.04-22.8,46.27-39.32c25.24-31.52,30.88-60.84,31.8-64.74
			c-8.47,4.05-53,29.49-72.85,45.42C294.36,369.61,285.92,392.95,292.03,401.7z"/>
		
			<linearGradient id="SVGID_00000014592249215407925000000001506790041126659487_" gradientUnits="userSpaceOnUse" x1="-11.7344" y1="387.643" x2="499.9507" y2="387.643">
			<stop  offset="0" style="stop-color:#F6EA90"/>
			<stop  offset="0.11" style="stop-color:#AF7D2C"/>
			<stop  offset="0.1318" style="stop-color:#B98A35"/>
			<stop  offset="0.1868" style="stop-color:#CEA548"/>
			<stop  offset="0.2468" style="stop-color:#DFBA57"/>
			<stop  offset="0.3137" style="stop-color:#EAC962"/>
			<stop  offset="0.3929" style="stop-color:#F1D168"/>
			<stop  offset="0.5156" style="stop-color:#F3D46A"/>
			<stop  offset="0.6097" style="stop-color:#F1D168"/>
			<stop  offset="0.6836" style="stop-color:#E9C761"/>
			<stop  offset="0.7507" style="stop-color:#DCB655"/>
			<stop  offset="0.8136" style="stop-color:#CA9F44"/>
			<stop  offset="0.8731" style="stop-color:#B2812F"/>
			<stop  offset="0.88" style="stop-color:#AF7D2C"/>
			<stop  offset="0.9532" style="stop-color:#DBB554"/>
			<stop  offset="1" style="stop-color:#F3D46A"/>
		</linearGradient>
		<path style="fill:url(#SVGID_00000014592249215407925000000001506790041126659487_);" d="M165.14,382.09
			c-17.09-1.32-31.32-9.43-44.93-18.68c-2.32-1.58-4.57-3.2-6.78-4.85c1,1.25,2.02,2.5,3.06,3.74
			c11.67,13.86,24.95,25.42,39.83,34.38c3.71,2.09,8.07,4.39,13.27,6.93c1.64,0.8,3.36,1.62,5.16,2.47c0.12,0.05,0.22,0.1,0.34,0.16
			c17.38,8.12,31.71,10.49,31.71,10.49s-8.14-16.48-5.07-42.09C190.94,380.47,178.42,383.12,165.14,382.09z"/>
	</g>
</g>
</svg>
