<?xml version="1.0" encoding="utf-8"?>
<!-- Generator: Adobe Illustrator 26.0.2, SVG Export Plug-In . SVG Version: 6.00 Build 0)  -->
<svg version="1.1" id="Layer_1" xmlns="http://www.w3.org/2000/svg" xmlns:xlink="http://www.w3.org/1999/xlink" x="0px" y="0px"
	 viewBox="0 0 483.39 503.72" style="enable-background:new 0 0 483.39 503.72;" xml:space="preserve">
<style type="text/css">
	.st0{fill:url(#SVGID_1_);}
	.st1{fill:#051D49;}
</style>
<g>
	<linearGradient id="SVGID_1_" gradientUnits="userSpaceOnUse" x1="38.6872" y1="251.5934" x2="458.7951" y2="251.5934">
		<stop  offset="0.0365" style="stop-color:#F3D46A"/>
		<stop  offset="0.0411" style="stop-color:#EDCD65"/>
		<stop  offset="0.066" style="stop-color:#D2AA4C"/>
		<stop  offset="0.0895" style="stop-color:#BF913A"/>
		<stop  offset="0.1109" style="stop-color:#B38230"/>
		<stop  offset="0.1283" style="stop-color:#AF7D2C"/>
		<stop  offset="0.1582" style="stop-color:#B88935"/>
		<stop  offset="0.2524" style="stop-color:#D2A94C"/>
		<stop  offset="0.3429" style="stop-color:#E4C15C"/>
		<stop  offset="0.4274" style="stop-color:#EFCF67"/>
		<stop  offset="0.4997" style="stop-color:#F3D46A"/>
		<stop  offset="0.5827" style="stop-color:#EFD067"/>
		<stop  offset="0.6739" style="stop-color:#E5C25D"/>
		<stop  offset="0.7689" style="stop-color:#D4AC4E"/>
		<stop  offset="0.8659" style="stop-color:#BC8E38"/>
		<stop  offset="0.9112" style="stop-color:#AF7D2C"/>
		<stop  offset="0.9558" style="stop-color:#E2CB73"/>
		<stop  offset="0.9765" style="stop-color:#F6EA90"/>
	</linearGradient>
	<polygon class="st0" points="42.16,91.33 147.95,52.5 260.31,40.93 390.71,66.13 435.82,84.72 456.96,79.67 457.34,102.12 
		457.29,261.12 429.25,336.68 367.74,426.73 258.67,462.25 132.63,434.17 58.56,337.51 37.24,219.38 37.24,121.89 	"/>
	<g>
		<path class="st1" d="M197.35,289.35c-9.65-10.09-19.78-19.71-29.45-29.78c-16.15-16.84-23.22-37.08-21.43-60.42
			c0.34-4.38,0.93-8.74,1.43-13.36c-0.7,0.36-1.04,0.45-1.27,0.66c-0.48,0.46-0.99,0.94-1.34,1.5
			c-8.84,14.06-13.22,29.38-12.63,46.06c0.73,20.57,9.25,37.45,23.27,52.2c11.5,12.1,14.07,26.74,8.94,42.74
			c-2.78,8.68-8.53,15.11-16.05,21.22c11.95,7.28,23.67,8.99,35.78,3.86c10.95-4.64,20.58-15.91,24.02-28.69
			C210.99,313.25,207.49,299.94,197.35,289.35z"/>
		<path class="st1" d="M221.29,277.36c0.2-6.02-0.64-11.54-3.11-15.95c-6.13-10.92-13.29-21.26-18.93-32.45
			c-13.04-25.87-3.21-60,19.65-67.45c-25.7-1.53-37.99,14.34-39.6,16.57c-0.11,0.16-0.18,0.25-0.19,0.26
			c-14.68,21.04-10.07,45.09,7.79,63.46c10.79,11.1,22.15,21.68,32.43,33.24C220.01,275.79,220.65,276.57,221.29,277.36z"/>
		<path class="st1" d="M336.16,227.12c93.83-47.78,110.61-68.1,116.03-73.93c3.89-4.19,4.91-7.54,5.14-8.5
			c0-14.19,0-24.41,0.02-38.59c-7.21,11.38-23.39,23.6-55.83,42.05c-9.93,5.65-64.59,33.14-101.96,56.9
			c-17.23,10.96-39.17,30.07-44.66,35.5c-0.6,0.59-1.55,0.07-1.45-0.78c1.37-11.41,4.12-22.5,9.17-31.72
			c12.07-22.01,37.75-34.35,58.81-46.49c27.57-15.91,78.44-41.94,79.01-42.3c-0.22-3.68-1.63-5.8-5.43-7.5
			c-40.02-17.87-81.7-29.02-125.38-32.72c-10.28-0.87-20.53-1.32-30.75-1.37c-10.23,0.05-20.48,0.5-30.75,1.37
			c-43.68,3.7-85.36,14.85-125.38,32.72c-4.2,1.87-5.48,4.25-5.46,8.69c0.1,34.16,0.07,68.32,0.07,102.48
			c0.01-0.01,0.03-0.02,0.05-0.04l0,16.25c0.05,1.66,0.1,3.32,0.16,4.98c1.12,31.66,14.79,58.87,37.05,81.42
			c6.36,6.44,16.17,6.53,22.11,0.56c6.29-6.33,6.32-15.93-0.21-22.68c-13.14-13.58-22.41-29.27-26.86-47.82
			c-7.5-31.3-0.1-59.2,16.7-86.09c9.73-15.58,16.38-21.03,20.85-24.8c-4.34-5.41-8.67-10.4-12.16-15.92
			c-4.61-7.28-11.09-19.89-7.29-27.99c1.47-3.14,3.74,1.78,6.08,4.23c7.53,7.88,13.71,9.16,19.99,10.21
			c7.82,1.31,13.98,1.34,21.17,1.6c13.81,0.51,27.63,0.74,41.16,3.97c8.58,2.05,16.71,4.95,21.81,13.04
			c0.52,0.82,1.79,1.2,2.77,1.66c5.03,2.39,10.34,4.3,15.06,7.19c13.38,8.21,13.66,22.47,6.52,36.69c-0.53,1.05-5.58,9.96-7.34,8.63
			c-0.35-0.26-0.35-0.83-0.13-1.91c1.19-5.32,0.35-10.22-2.82-13.38c-5.71-5.71-16.98-3.77-26.18,4.12
			c-0.79,0.68-1.58,1.4-2.34,2.17c-3.84,3.9-6.57,8.32-8.06,12.61c-0.86,3.05-1.25,6.47-1.01,10.29c0.35,5.63,2.05,12.12,5.63,19.57
			c6.67,13.89,14.04,20.11,20.39,32.44c6.67,12.95,7.92,27.64,4.33,41.11C248.47,281.33,302.82,244.09,336.16,227.12z"/>
		<path class="st1" d="M222.94,146.31c2.5,0,5,0.02,7.5-0.01c1.67-0.02,2.27-0.75,1.54-2.41c-2.13-4.85-5.2-8.66-10.77-9.45
			c-5.73-0.82-11.52-0.08-17.28-0.33c-0.12,0-0.2,0.09-0.18,0.2c0.81,6.18,6.24,11.4,12.45,11.91
			C218.42,146.41,222.94,146.31,222.94,146.31z"/>
		<path class="st1" d="M426.14,285.06c-0.1,0.58-6.4,40.72-19.2,62.09c-11.07,18.48-32.04,56.57-77.7,80.13
			c-17.9,9.24-41.28,10.09-55.34-0.71c-1.26-0.97-2.4-2.06-3.48-3.22c-0.18-0.19-0.36-0.38-0.54-0.58
			c-0.01-0.01-0.01-0.01-0.02-0.02c-3.15-3.51-9.29-13.34-6.76-30.38c7.08-47.75,55-76.79,65.68-83.47
			c50.38-31.48,128.19-71.09,128.55-84.02c-0.01-15.96-0.04-50.54-0.04-50.54s0.02,23.69-116.72,82.05
			c-32.13,16.07-110.82,64.13-113.85,130.29c-0.56,12.17,2.93,23.06,8,33.32c0.75,1.52,1.57,3.01,2.47,4.48
			c0.46,0.76,0.95,1.49,1.44,2.22c7.3,11.44,16.53,16.32,16.53,16.32s-1.32,0.23-3.71,0.48c-7.81,0.82-27.46,1.88-53.52-4.08
			c-0.03-0.01-0.05-0.01-0.07-0.02c-2.64-0.6-5.1-1.19-7.42-1.77c-12.01-3.01-20.35-5.95-30.18-10.86l-4.55-2.02
			c-10.21-5.1-19.84-11.24-28.92-18.29c-0.98-0.74-1.9-1.44-2.71-2.08c-3.62-2.85-5.53-4.63-5.53-4.63l0,0
			c-8.18-7.16-15.86-15.15-23.04-23.93c-15.91-19.46-27.32-40.65-34.2-63.49c-3.92-12.72-6.43-25.94-7.53-39.61
			c-0.45-5.56-0.72-11.14-0.73-16.72C53,205.71,53.08,155.4,52.92,105.09c-0.02-4.81,1.43-7.45,5.78-9.6
			c34.35-16.92,70.3-28.93,107.87-35.83c21.52-3.95,43.26-6.01,65.19-6.47c2.36-0.05,4.72-0.08,7.08-0.09c0,0,0.01,0,0.01,0
			c0,0,0.01,0,0.01,0c2.36,0.01,4.72,0.04,7.08,0.09c21.93,0.47,43.67,2.52,65.19,6.47c37.58,6.9,73.53,18.92,107.87,35.83
			c3.28,1.61,4.9,3.52,5.5,6.41c6.24-3.51,27.1-15.61,32.19-21.92c0.14-0.18,0.06-0.38-0.05-0.58c-0.94-1.75-2.85-2.58-3.6-2.95
			c-43.97-22.12-90.3-36.73-138.82-44.25c-27.38-4.25-54.93-5.82-82.68-5.23c-25.2,0.53-50.18,2.9-74.91,7.44
			c-43.18,7.93-84.49,21.74-123.96,41.18c-5,2.46-6.66,5.5-6.64,11.03c0.19,57.81,0.09,115.62,0.15,173.44
			c0.01,6.4,0.32,12.82,0.84,19.21c2.85,35.62,14.04,68.54,33.63,98.18c35.86,54.27,85.75,87.09,150.07,96.96
			c29.58,4.54,58.9,2.8,87.69-5.15c44.32-12.24,81.25-36.42,110.27-72.27c31.93-39.45,48.33-84.82,48.59-135.86
			c0.01-1.1,0.01-2.19,0.01-3.29C449.15,268.05,437.83,275.09,426.14,285.06z"/>
		<path class="st1" d="M292.08,402.12c7.58,10.86,21.96,4.91,28.13,1.7c19.54-10.18,33.07-22.82,46.32-39.36
			c25.26-31.56,30.91-60.9,31.83-64.81c-8.48,4.05-53.05,29.52-72.93,45.47C294.42,370,285.96,393.36,292.08,402.12z"/>
		<path class="st1" d="M165.06,382.48c-17.1-1.33-31.35-9.44-44.97-18.7c-2.32-1.58-4.58-3.2-6.78-4.86c1,1.26,2.02,2.51,3.06,3.74
			c11.68,13.87,24.98,25.44,39.87,34.42c3.71,2.09,8.08,4.4,13.29,6.94c1.64,0.8,3.36,1.62,5.17,2.47c0.12,0.05,0.22,0.1,0.34,0.16
			c17.4,8.12,31.74,10.5,31.74,10.5s-8.15-16.49-5.08-42.13C190.89,380.86,178.35,383.51,165.06,382.48z"/>
	</g>
</g>
</svg>
