<svg width="1237" height="335" viewBox="0 0 1237 335" fill="none" xmlns="http://www.w3.org/2000/svg">
<g clip-path="url(#clip0_1514_32)">
<path d="M452.193 101.21L384.328 252.027H413.191L428.132 217.1H503.565L518.555 252.027H547.855L479.747 101.21H452.193ZM437.543 195.125L465.776 129.104L494.106 195.125H437.543Z" fill="#051D49"/>
<path d="M667.669 136.961H638.563L610.233 174.605L582.098 136.961H552.167L595.147 193.572L550.227 252.027H579.963L609.797 212.249L639.194 252.027H669.609L624.592 193.184L667.669 136.961Z" fill="#051D49"/>
<path d="M762.458 143.025C753.678 138.126 743.733 135.7 732.528 135.7C721.031 135.7 710.795 138.223 701.821 143.219C692.847 148.264 685.813 155.201 680.719 164.03C675.626 172.859 673.055 183.046 673.055 194.543C673.055 205.894 675.674 216.032 680.913 224.91C686.152 233.836 693.574 240.821 703.131 245.914C712.687 251.008 723.844 253.579 736.651 253.579C746.693 253.579 755.667 251.978 763.477 248.728C771.287 245.478 777.787 240.869 782.978 234.806L768.522 218.215C764.496 222.533 759.887 225.686 754.745 227.675C749.555 229.712 743.734 230.682 737.282 230.682C729.811 230.682 723.214 229.227 717.441 226.365C711.717 223.503 707.254 219.38 704.101 214.092C702.112 210.745 700.754 207.058 700.026 203.08H790.303C790.448 201.771 790.545 200.412 790.642 199.006C790.691 197.55 790.739 196.289 790.739 195.125C790.739 183.046 788.217 172.568 783.22 163.642C778.127 154.765 771.239 147.876 762.458 143.025ZM703.519 173.489C706.332 168.396 710.213 164.418 715.161 161.507C720.109 158.645 725.882 157.19 732.528 157.19C738.979 157.19 744.704 158.645 749.652 161.507C754.6 164.369 758.529 168.347 761.391 173.344C763.428 176.885 764.69 180.863 765.223 185.18H699.832C700.414 180.911 701.627 176.982 703.519 173.489Z" fill="#051D49"/>
<path d="M833.532 92.1384H806.609V252.027H833.532V92.1384Z" fill="#051D49"/>
<path d="M895.817 92.1384H868.895V252.027H895.817V92.1384Z" fill="#051D49"/>
<path d="M1003.65 143.025C994.865 138.126 984.921 135.7 973.715 135.7C962.218 135.7 951.983 138.223 943.008 143.219C934.034 148.264 927 155.201 921.907 164.03C916.813 172.859 914.242 183.046 914.242 194.543C914.242 205.894 916.862 216.032 922.101 224.91C927.34 233.836 934.762 240.821 944.318 245.914C953.875 251.008 965.032 253.579 977.839 253.579C987.88 253.579 996.854 251.978 1004.66 248.728C1012.47 245.478 1018.97 240.869 1024.17 234.806L1009.71 218.215C1005.68 222.533 1001.07 225.686 995.933 227.675C990.742 229.712 984.921 230.682 978.469 230.682C970.999 230.682 964.401 229.227 958.629 226.365C952.904 223.503 948.442 219.38 945.288 214.092C943.3 210.745 941.941 207.058 941.214 203.08H1031.49C1031.64 201.771 1031.73 200.412 1031.83 199.006C1031.88 197.55 1031.93 196.289 1031.93 195.125C1031.93 183.046 1029.4 172.568 1024.41 163.642C1019.31 154.765 1012.43 147.876 1003.65 143.025ZM944.755 173.489C947.568 168.396 951.449 164.418 956.397 161.507C961.345 158.645 967.118 157.19 973.764 157.19C980.216 157.19 985.94 158.645 990.888 161.507C995.836 164.369 999.765 168.347 1002.63 173.344C1004.66 176.885 1005.93 180.863 1006.46 185.18H941.068C941.602 180.911 942.814 176.982 944.755 173.489Z" fill="#051D49"/>
<path d="M1089.95 162.817C1095.28 159.955 1101.2 158.5 1107.85 158.5C1113.57 158.5 1118.96 159.81 1123.91 162.381C1128.85 164.952 1133.07 168.978 1136.52 174.459L1157.18 162.381C1152.72 153.6 1146.22 146.954 1137.68 142.443C1129.14 137.932 1119.25 135.652 1108.04 135.652C1095.96 135.652 1085.24 138.174 1075.83 143.171C1066.42 148.216 1059.05 155.153 1053.76 163.981C1048.42 172.81 1045.8 182.997 1045.8 194.494C1045.8 205.845 1048.47 215.984 1053.76 224.861C1059.1 233.787 1066.42 240.772 1075.83 245.866C1085.24 250.959 1095.96 253.53 1108.04 253.53C1119.25 253.53 1129.14 251.202 1137.68 246.545C1146.22 241.888 1152.72 235.242 1157.18 226.607L1136.52 214.529C1133.07 220.01 1128.85 223.988 1123.91 226.607C1118.96 229.179 1113.57 230.488 1107.85 230.488C1101.25 230.488 1095.28 229.033 1089.95 226.171C1084.61 223.309 1080.49 219.185 1077.43 213.801C1074.43 208.416 1072.92 201.965 1072.92 194.494C1072.92 187.024 1074.43 180.572 1077.43 175.187C1080.49 169.851 1084.66 165.679 1089.95 162.817Z" fill="#051D49"/>
<path d="M1231.21 226.607C1227.18 229.761 1222.14 231.361 1216.12 231.361C1211.08 231.361 1207.2 229.858 1204.38 226.85C1201.57 223.842 1200.16 219.622 1200.16 214.14V159.373H1230.96V137.835H1200.16V111.542H1173.24V214.771C1173.24 227.578 1176.68 237.231 1183.57 243.731C1190.46 250.28 1200.21 253.53 1212.87 253.53C1217.77 253.53 1222.48 252.9 1227.08 251.59C1231.69 250.28 1235.57 248.34 1238.73 245.769L1231.21 226.607Z" fill="#051D49"/>
<path d="M13.6203 48.6257L92.1577 19.8108L175.546 11.2246L272.323 29.9494L305.843 43.7262L321.512 39.9909L321.803 56.6783L321.755 174.703L300.944 230.78L255.296 297.626L174.333 324.016L80.7579 303.157L25.7963 231.411L9.93359 143.705V71.3283L13.6203 48.6257Z" fill="#051D49"/>
<path d="M128.829 195.659C121.65 188.188 114.131 181.009 106.951 173.538C94.9693 161.023 89.7303 146.033 91.0401 128.667C91.2826 125.416 91.7192 122.166 92.1073 118.771C91.5737 119.062 91.3311 119.11 91.1856 119.256C90.846 119.595 90.4579 119.935 90.1669 120.371C83.6181 130.801 80.3679 142.201 80.8045 154.571C81.3381 169.851 87.6929 182.367 98.074 193.33C106.612 202.304 108.504 213.171 104.72 225.055C102.634 231.507 98.365 236.261 92.7864 240.821C101.664 246.206 110.347 247.516 119.37 243.683C127.519 240.239 134.65 231.847 137.221 222.387C138.968 213.365 136.348 203.517 128.829 195.659Z" fill="url(#paint0_linear_1514_32)"/>
<path d="M146.59 186.733C146.735 182.27 146.105 178.147 144.261 174.897C139.702 166.795 134.414 159.131 130.194 150.787C120.492 131.577 127.817 106.255 144.795 100.725C125.731 99.6093 116.611 111.349 115.398 113.047C115.301 113.144 115.253 113.241 115.253 113.241C104.338 128.861 107.782 146.712 121.025 160.344C129.029 168.59 137.47 176.449 145.086 185.035C145.668 185.569 146.105 186.151 146.59 186.733Z" fill="url(#paint1_linear_1514_32)"/>
<path d="M231.873 149.429C301.485 113.969 313.952 98.8822 317.978 94.5649C320.889 91.4602 321.616 88.9863 321.81 88.2586C321.81 77.732 321.81 70.1645 321.81 59.5893C316.474 68.03 304.444 77.1013 280.383 90.7811C273.01 94.953 232.455 115.376 204.708 133.033C191.901 141.183 175.65 155.348 171.576 159.374C171.139 159.811 170.411 159.423 170.508 158.792C171.527 150.303 173.564 142.104 177.3 135.265C186.274 118.917 205.338 109.748 220.959 100.774C241.43 88.9863 279.17 69.6309 279.607 69.3883C279.461 66.6718 278.394 65.0709 275.581 63.8097C245.893 50.518 214.943 42.2713 182.49 39.5063C174.874 38.8756 167.258 38.5361 159.642 38.4875C152.075 38.5361 144.459 38.8756 136.794 39.5063C104.389 42.2713 73.4402 50.518 43.7037 63.8097C40.5991 65.2165 39.6289 66.9628 39.6289 70.2615C39.7259 95.6321 39.6774 120.954 39.6774 146.325C39.6774 146.325 39.6774 146.325 39.7259 146.276V158.355C39.7744 159.568 39.8229 160.829 39.8229 162.042C40.6476 185.569 50.7862 205.749 67.328 222.485C72.0335 227.288 79.3099 227.336 83.7243 222.922C88.3813 218.216 88.4298 211.085 83.5788 206.089C73.8283 195.999 66.9399 184.357 63.6413 170.58C58.0626 147.344 63.5442 126.63 76.0598 106.692C83.2877 95.147 88.2357 91.0722 91.5344 88.2586C88.3328 84.2323 85.0826 80.5455 82.5116 76.4222C79.0674 71.0376 74.2649 61.6752 77.0785 55.66C78.1942 53.3316 79.8435 56.9698 81.5899 58.8132C87.1685 64.6829 91.7769 65.6045 96.4339 66.3807C102.255 67.3509 106.815 67.3509 112.151 67.5934C122.387 67.9815 132.671 68.127 142.712 70.5525C149.067 72.0563 155.131 74.2393 158.915 80.2545C159.303 80.8851 160.224 81.1277 160.952 81.4672C164.687 83.2621 168.616 84.6689 172.109 86.8033C182.054 92.9155 182.248 103.491 176.96 114.017C176.572 114.793 172.837 121.391 171.527 120.421C171.285 120.227 171.285 119.79 171.43 119.014C172.303 115.085 171.673 111.446 169.344 109.069C165.124 104.849 156.732 106.256 149.892 112.125C149.31 112.611 148.727 113.144 148.145 113.726C145.283 116.637 143.246 119.887 142.179 123.089C141.548 125.369 141.257 127.891 141.402 130.705C141.645 134.877 142.906 139.679 145.574 145.258C150.522 155.59 156.004 160.199 160.709 169.318C165.657 178.923 166.579 189.838 163.911 199.831C166.773 189.693 207.085 162.042 231.873 149.429Z" fill="url(#paint2_linear_1514_32)"/>
<path d="M147.653 89.2284C149.399 89.2284 151.194 89.2284 152.941 89.2284C154.105 89.2284 154.541 88.6948 154.008 87.5306C152.504 84.0864 150.321 81.4183 146.392 80.8847C142.365 80.3026 138.291 80.8362 134.216 80.6422C134.119 80.6422 134.07 80.6907 134.07 80.7877C134.652 85.1536 138.485 88.8403 142.851 89.1799C144.451 89.3254 147.653 89.2284 147.653 89.2284Z" fill="url(#paint3_linear_1514_32)"/>
<path d="M298.672 192.457C298.623 192.894 293.918 222.679 284.41 238.542C276.212 252.27 260.64 280.551 226.732 298.015C213.44 304.854 196.073 305.485 185.644 297.481C184.722 296.753 183.849 295.929 183.073 295.104C182.927 294.958 182.782 294.813 182.685 294.667C180.356 292.048 175.796 284.771 177.688 272.11C182.927 236.65 218.534 215.111 226.441 210.163C263.842 186.782 321.617 157.385 321.859 147.78C321.859 135.943 321.811 110.282 321.811 110.282C321.811 110.282 321.811 127.842 235.172 171.21C211.306 183.143 152.9 218.798 150.668 267.939C150.232 276.961 152.851 285.062 156.586 292.679C157.12 293.794 157.751 294.91 158.43 296.026C158.769 296.608 159.158 297.141 159.497 297.675C164.93 306.164 171.77 309.802 171.77 309.802C171.77 309.802 170.8 309.997 169.005 310.142C163.232 310.773 148.631 311.549 129.275 307.134H129.227C127.287 306.698 125.443 306.261 123.697 305.825C114.771 303.593 108.61 301.41 101.285 297.772L97.8896 296.268C90.3221 292.484 83.1426 287.925 76.3998 282.686C75.6721 282.152 74.993 281.618 74.3624 281.133C71.6943 278.999 70.239 277.689 70.239 277.689C64.1753 272.353 58.4512 266.435 53.1151 259.934C41.3272 245.478 32.838 229.761 27.7444 212.783C24.8339 203.323 22.9905 193.524 22.1658 183.386C21.8262 179.263 21.6322 175.091 21.6322 170.967C21.5837 133.615 21.6322 96.2623 21.5352 58.9098C21.5352 55.32 22.6024 53.3797 25.8041 51.7788C51.3202 39.2148 78.0006 30.289 105.894 25.1955C121.853 22.2849 138.007 20.7326 154.307 20.393C156.053 20.3445 157.799 20.3445 159.546 20.3445C161.292 20.3445 163.038 20.393 164.785 20.393C181.084 20.7326 197.189 22.2849 213.197 25.1955C241.091 30.3375 267.771 39.2148 293.287 51.7788C295.713 52.9916 296.925 54.3984 297.362 56.5328C302.019 53.9133 317.494 44.939 321.277 40.2335C321.374 40.088 321.326 39.9424 321.229 39.7969C320.55 38.4872 319.094 37.905 318.561 37.614C285.914 21.1691 251.52 10.3515 215.526 4.77283C195.2 1.6197 174.729 0.455465 154.161 0.892053C135.436 1.28013 116.905 3.02648 98.5688 6.42217C66.5038 12.2919 35.8456 22.5759 6.54566 36.9834C2.8104 38.8267 1.59766 41.0582 1.59766 45.1815C1.74319 88.1127 1.64617 130.995 1.69468 173.927C1.69468 178.68 1.93722 183.434 2.3253 188.188C4.45973 214.626 12.7549 239.075 27.3079 261.05C53.9397 301.313 90.9527 325.714 138.686 333.039C160.661 336.386 182.394 335.125 203.787 329.206C236.676 320.135 264.084 302.186 285.623 275.555C309.344 246.255 321.52 212.589 321.714 174.703C321.714 173.878 321.714 173.053 321.714 172.277C315.747 179.845 307.355 185.084 298.672 192.457Z" fill="url(#paint4_linear_1514_32)"/>
<path d="M199.125 279.339C204.752 287.391 215.424 282.977 219.984 280.6C234.488 273.032 244.53 263.67 254.377 251.397C273.151 227.967 277.323 206.186 278.002 203.275C271.695 206.283 238.612 225.202 223.865 237.038C200.871 255.52 194.613 272.838 199.125 279.339Z" fill="url(#paint5_linear_1514_32)"/>
<path d="M104.881 264.785C92.1711 263.815 81.596 257.799 71.506 250.911C69.7596 249.747 68.1103 248.534 66.4609 247.321C67.1886 248.243 67.9647 249.165 68.7409 250.086C77.4242 260.37 87.2716 268.957 98.3319 275.651C101.097 277.203 104.347 278.901 108.179 280.793C109.392 281.375 110.653 282.006 112.012 282.636C112.109 282.685 112.157 282.733 112.254 282.733C125.158 288.749 135.83 290.544 135.83 290.544C135.83 290.544 129.766 278.319 132.046 259.255C124.042 263.572 114.728 265.561 104.881 264.785Z" fill="url(#paint6_linear_1514_32)"/>
</g>
<defs>
<linearGradient id="paint0_linear_1514_32" x1="-26.5783" y1="182.328" x2="353.641" y2="182.328" gradientUnits="userSpaceOnUse">
<stop stop-color="#F4E88E"/>
<stop offset="0.11" stop-color="#AC7D2C"/>
<stop offset="0.1288" stop-color="#B58834"/>
<stop offset="0.1841" stop-color="#CBA348"/>
<stop offset="0.2447" stop-color="#DCB857"/>
<stop offset="0.3121" stop-color="#E8C762"/>
<stop offset="0.3919" stop-color="#EFCF68"/>
<stop offset="0.5156" stop-color="#F1D26A"/>
<stop offset="0.6106" stop-color="#EECF68"/>
<stop offset="0.6852" stop-color="#E6C561"/>
<stop offset="0.7529" stop-color="#D9B454"/>
<stop offset="0.8164" stop-color="#C69D43"/>
<stop offset="0.8765" stop-color="#AE7F2D"/>
<stop offset="0.88" stop-color="#AC7D2C"/>
<stop offset="0.9522" stop-color="#D8B353"/>
<stop offset="1" stop-color="#F1D26A"/>
</linearGradient>
<linearGradient id="paint1_linear_1514_32" x1="-26.5721" y1="143.692" x2="353.647" y2="143.692" gradientUnits="userSpaceOnUse">
<stop stop-color="#F4E88E"/>
<stop offset="0.11" stop-color="#AC7D2C"/>
<stop offset="0.1288" stop-color="#B58834"/>
<stop offset="0.1841" stop-color="#CBA348"/>
<stop offset="0.2447" stop-color="#DCB857"/>
<stop offset="0.3121" stop-color="#E8C762"/>
<stop offset="0.3919" stop-color="#EFCF68"/>
<stop offset="0.5156" stop-color="#F1D26A"/>
<stop offset="0.6106" stop-color="#EECF68"/>
<stop offset="0.6852" stop-color="#E6C561"/>
<stop offset="0.7529" stop-color="#D9B454"/>
<stop offset="0.8164" stop-color="#C69D43"/>
<stop offset="0.8765" stop-color="#AE7F2D"/>
<stop offset="0.88" stop-color="#AC7D2C"/>
<stop offset="0.9522" stop-color="#D8B353"/>
<stop offset="1" stop-color="#F1D26A"/>
</linearGradient>
<linearGradient id="paint2_linear_1514_32" x1="-26.569" y1="132.325" x2="353.65" y2="132.325" gradientUnits="userSpaceOnUse">
<stop offset="0.0365" stop-color="#F1D26A"/>
<stop offset="0.0399" stop-color="#EDCD66"/>
<stop offset="0.0651" stop-color="#D1AA4D"/>
<stop offset="0.0889" stop-color="#BC913B"/>
<stop offset="0.1106" stop-color="#B08230"/>
<stop offset="0.1283" stop-color="#AC7D2C"/>
<stop offset="0.1536" stop-color="#B48733"/>
<stop offset="0.2491" stop-color="#CEA74B"/>
<stop offset="0.3409" stop-color="#E2BF5C"/>
<stop offset="0.4264" stop-color="#EDCD66"/>
<stop offset="0.4997" stop-color="#F1D26A"/>
<stop offset="0.57" stop-color="#EDCE67"/>
<stop offset="0.6472" stop-color="#E3C05D"/>
<stop offset="0.7276" stop-color="#D1AA4D"/>
<stop offset="0.8098" stop-color="#B88C37"/>
<stop offset="0.8439" stop-color="#AC7D2C"/>
<stop offset="0.8914" stop-color="#DFC972"/>
<stop offset="0.9141" stop-color="#F4E88E"/>
</linearGradient>
<linearGradient id="paint3_linear_1514_32" x1="-1.81974" y1="84.9319" x2="323.268" y2="84.9319" gradientUnits="userSpaceOnUse">
<stop stop-color="#F4E88E"/>
<stop offset="0.11" stop-color="#AC7D2C"/>
<stop offset="0.1288" stop-color="#B58834"/>
<stop offset="0.1841" stop-color="#CBA348"/>
<stop offset="0.2447" stop-color="#DCB857"/>
<stop offset="0.3121" stop-color="#E8C762"/>
<stop offset="0.3919" stop-color="#EFCF68"/>
<stop offset="0.5156" stop-color="#F1D26A"/>
<stop offset="0.6106" stop-color="#EECF68"/>
<stop offset="0.6852" stop-color="#E6C561"/>
<stop offset="0.7529" stop-color="#D9B454"/>
<stop offset="0.8164" stop-color="#C69D43"/>
<stop offset="0.8765" stop-color="#AE7F2D"/>
<stop offset="0.88" stop-color="#AC7D2C"/>
<stop offset="0.9522" stop-color="#D8B353"/>
<stop offset="1" stop-color="#F1D26A"/>
</linearGradient>
<linearGradient id="paint4_linear_1514_32" x1="1.59766" y1="167.832" x2="321.859" y2="167.832" gradientUnits="userSpaceOnUse">
<stop offset="0.0365" stop-color="#F1D26A"/>
<stop offset="0.0399" stop-color="#EDCD66"/>
<stop offset="0.0651" stop-color="#D1AA4D"/>
<stop offset="0.0889" stop-color="#BC913B"/>
<stop offset="0.1106" stop-color="#B08230"/>
<stop offset="0.1283" stop-color="#AC7D2C"/>
<stop offset="0.1536" stop-color="#B48733"/>
<stop offset="0.2491" stop-color="#CEA74B"/>
<stop offset="0.3409" stop-color="#E2BF5C"/>
<stop offset="0.4264" stop-color="#EDCD66"/>
<stop offset="0.4997" stop-color="#F1D26A"/>
<stop offset="0.5838" stop-color="#EDCE67"/>
<stop offset="0.6761" stop-color="#E3C05D"/>
<stop offset="0.7723" stop-color="#D1AA4D"/>
<stop offset="0.8705" stop-color="#B88C37"/>
<stop offset="0.9112" stop-color="#AC7D2C"/>
<stop offset="0.9555" stop-color="#DFC972"/>
<stop offset="0.9765" stop-color="#F4E88E"/>
</linearGradient>
<linearGradient id="paint5_linear_1514_32" x1="-26.5735" y1="243.62" x2="353.646" y2="243.62" gradientUnits="userSpaceOnUse">
<stop stop-color="#F4E88E"/>
<stop offset="0.11" stop-color="#AC7D2C"/>
<stop offset="0.1288" stop-color="#B58834"/>
<stop offset="0.1841" stop-color="#CBA348"/>
<stop offset="0.2447" stop-color="#DCB857"/>
<stop offset="0.3121" stop-color="#E8C762"/>
<stop offset="0.3919" stop-color="#EFCF68"/>
<stop offset="0.5156" stop-color="#F1D26A"/>
<stop offset="0.6106" stop-color="#EECF68"/>
<stop offset="0.6852" stop-color="#E6C561"/>
<stop offset="0.7529" stop-color="#D9B454"/>
<stop offset="0.8164" stop-color="#C69D43"/>
<stop offset="0.8765" stop-color="#AE7F2D"/>
<stop offset="0.88" stop-color="#AC7D2C"/>
<stop offset="0.9522" stop-color="#D8B353"/>
<stop offset="1" stop-color="#F1D26A"/>
</linearGradient>
<linearGradient id="paint6_linear_1514_32" x1="-26.5629" y1="268.933" x2="353.656" y2="268.933" gradientUnits="userSpaceOnUse">
<stop stop-color="#F4E88E"/>
<stop offset="0.11" stop-color="#AC7D2C"/>
<stop offset="0.1288" stop-color="#B58834"/>
<stop offset="0.1841" stop-color="#CBA348"/>
<stop offset="0.2447" stop-color="#DCB857"/>
<stop offset="0.3121" stop-color="#E8C762"/>
<stop offset="0.3919" stop-color="#EFCF68"/>
<stop offset="0.5156" stop-color="#F1D26A"/>
<stop offset="0.6106" stop-color="#EECF68"/>
<stop offset="0.6852" stop-color="#E6C561"/>
<stop offset="0.7529" stop-color="#D9B454"/>
<stop offset="0.8164" stop-color="#C69D43"/>
<stop offset="0.8765" stop-color="#AE7F2D"/>
<stop offset="0.88" stop-color="#AC7D2C"/>
<stop offset="0.9522" stop-color="#D8B353"/>
<stop offset="1" stop-color="#F1D26A"/>
</linearGradient>
<clipPath id="clip0_1514_32">
<rect width="1237" height="335" fill="white"/>
</clipPath>
</defs>
</svg>
