<?xml version="1.0" encoding="utf-8"?>
<!-- Generator: Adobe Illustrator 26.0.2, SVG Export Plug-In . SVG Version: 6.00 Build 0)  -->
<svg version="1.1" id="Layer_1" xmlns="http://www.w3.org/2000/svg" xmlns:xlink="http://www.w3.org/1999/xlink" x="0px" y="0px"
	 viewBox="0 0 255.12 170.08" style="enable-background:new 0 0 255.12 170.08;" xml:space="preserve">
<style type="text/css">
	.st0{fill:#001E4C;}
	.st1{fill:url(#SVGID_1_);}
</style>
<g>
	<g>
		<path class="st0" d="M92.92,71.35l-13.99,31.09h5.95l3.08-7.2h15.55l3.09,7.2h6.04L98.61,71.35H92.92z M89.9,90.71l5.82-13.61
			l5.84,13.61H89.9z"/>
		<polygon class="st0" points="137.34,78.72 131.34,78.72 125.51,86.48 119.71,78.72 113.53,78.72 122.39,90.39 113.13,102.44 
			119.26,102.44 125.41,94.24 131.48,102.44 137.74,102.44 128.46,90.31 		"/>
		<path class="st0" d="M156.89,79.97c-1.81-1.01-3.86-1.51-6.17-1.51c-2.37,0-4.48,0.52-6.33,1.55c-1.85,1.04-3.3,2.47-4.35,4.29
			s-1.58,3.92-1.58,6.29c0,2.34,0.54,4.43,1.62,6.26c1.08,1.84,2.61,3.28,4.58,4.33s4.27,1.58,6.91,1.58c2.07,0,3.92-0.33,5.53-1
			s2.95-1.62,4.02-2.87l-2.98-3.42c-0.83,0.89-1.78,1.54-2.84,1.95c-1.07,0.42-2.27,0.62-3.6,0.62c-1.54,0-2.9-0.3-4.09-0.89
			c-1.18-0.59-2.1-1.44-2.75-2.53c-0.41-0.69-0.69-1.45-0.84-2.27h18.61c0.03-0.27,0.05-0.55,0.07-0.84c0.01-0.3,0.02-0.56,0.02-0.8
			c0-2.49-0.52-4.65-1.55-6.49C160.12,82.39,158.69,80.97,156.89,79.97z M144.74,86.25c0.58-1.05,1.38-1.87,2.4-2.47
			c1.02-0.59,2.21-0.89,3.58-0.89c1.33,0,2.51,0.3,3.53,0.89s1.83,1.41,2.42,2.44c0.42,0.73,0.68,1.55,0.79,2.44h-13.48
			C144.1,87.78,144.34,86.97,144.74,86.25z"/>
		<rect x="165.99" y="69.48" class="st0" width="5.55" height="32.96"/>
		<rect x="178.83" y="69.48" class="st0" width="5.55" height="32.96"/>
		<path class="st0" d="M206.61,79.97c-1.81-1.01-3.86-1.51-6.17-1.51c-2.37,0-4.48,0.52-6.33,1.55c-1.85,1.04-3.3,2.47-4.35,4.29
			s-1.58,3.92-1.58,6.29c0,2.34,0.54,4.43,1.62,6.26c1.08,1.84,2.61,3.28,4.58,4.33s4.27,1.58,6.91,1.58c2.07,0,3.92-0.33,5.53-1
			s2.95-1.62,4.02-2.87l-2.98-3.42c-0.83,0.89-1.78,1.54-2.84,1.95c-1.07,0.42-2.27,0.62-3.6,0.62c-1.54,0-2.9-0.3-4.09-0.89
			c-1.18-0.59-2.1-1.44-2.75-2.53c-0.41-0.69-0.69-1.45-0.84-2.27h18.61c0.03-0.27,0.05-0.55,0.07-0.84c0.01-0.3,0.02-0.56,0.02-0.8
			c0-2.49-0.52-4.65-1.55-6.49C209.84,82.39,208.42,80.97,206.61,79.97z M194.46,86.25c0.58-1.05,1.38-1.87,2.4-2.47
			c1.02-0.59,2.21-0.89,3.58-0.89c1.33,0,2.51,0.3,3.53,0.89s1.83,1.41,2.42,2.44c0.42,0.73,0.68,1.55,0.79,2.44H193.7
			C193.82,87.78,194.07,86.97,194.46,86.25z"/>
		<path class="st0" d="M224.4,84.05c1.1-0.59,2.32-0.89,3.69-0.89c1.18,0,2.29,0.27,3.31,0.8c1.02,0.53,1.89,1.36,2.6,2.49
			l4.26-2.49c-0.92-1.81-2.26-3.18-4.02-4.11c-1.76-0.93-3.8-1.4-6.11-1.4c-2.49,0-4.7,0.52-6.64,1.55
			c-1.94,1.04-3.46,2.47-4.55,4.29c-1.1,1.82-1.64,3.92-1.64,6.29c0,2.34,0.55,4.43,1.64,6.26c1.1,1.84,2.61,3.28,4.55,4.33
			s4.15,1.58,6.64,1.58c2.31,0,4.35-0.48,6.11-1.44s3.1-2.33,4.02-4.11L234,94.71c-0.71,1.13-1.58,1.95-2.6,2.49
			c-1.02,0.53-2.13,0.8-3.31,0.8c-1.36,0-2.59-0.3-3.69-0.89s-1.95-1.44-2.58-2.55c-0.62-1.11-0.93-2.44-0.93-3.98
			s0.31-2.87,0.93-3.98C222.45,85.5,223.3,84.64,224.4,84.05z"/>
		<path class="st0" d="M253.51,97.2c-0.83,0.65-1.87,0.98-3.11,0.98c-1.04,0-1.84-0.31-2.42-0.93s-0.87-1.49-0.87-2.62V83.34h6.35
			V78.9h-6.35v-5.42h-5.55v21.28c0,2.64,0.71,4.63,2.13,5.97c1.42,1.35,3.43,2.02,6.04,2.02c1.01,0,1.98-0.13,2.93-0.4
			c0.95-0.27,1.75-0.67,2.4-1.2L253.51,97.2z"/>
	</g>
	<g>
		
			<linearGradient id="SVGID_1_" gradientUnits="userSpaceOnUse" x1="1.9836" y1="85.0787" x2="66.2736" y2="85.0787" gradientTransform="matrix(1 0 0 -1 0 170.0788)">
			<stop  offset="0.0365" style="stop-color:#F1D26A"/>
			<stop  offset="0.0399" style="stop-color:#EDCD66"/>
			<stop  offset="0.0651" style="stop-color:#D1AA4D"/>
			<stop  offset="0.0889" style="stop-color:#BC913B"/>
			<stop  offset="0.1106" style="stop-color:#B08230"/>
			<stop  offset="0.1283" style="stop-color:#AC7D2C"/>
			<stop  offset="0.1536" style="stop-color:#B48733"/>
			<stop  offset="0.2491" style="stop-color:#CEA74B"/>
			<stop  offset="0.3409" style="stop-color:#E2BF5C"/>
			<stop  offset="0.4264" style="stop-color:#EDCD66"/>
			<stop  offset="0.4997" style="stop-color:#F1D26A"/>
			<stop  offset="0.5838" style="stop-color:#EDCE67"/>
			<stop  offset="0.6761" style="stop-color:#E3C05D"/>
			<stop  offset="0.7723" style="stop-color:#D1AA4D"/>
			<stop  offset="0.8705" style="stop-color:#B88C37"/>
			<stop  offset="0.9112" style="stop-color:#AC7D2C"/>
			<stop  offset="0.9555" style="stop-color:#DFC972"/>
			<stop  offset="0.9765" style="stop-color:#F4E88E"/>
		</linearGradient>
		<polygon class="st1" points="2.51,60.47 18.7,54.53 35.9,52.76 55.85,56.62 62.75,59.46 65.99,58.69 66.05,62.13 66.04,86.46 
			61.75,98.02 52.34,111.8 35.65,117.24 16.36,112.94 5.02,98.15 1.76,80.07 1.76,65.15 		"/>
		<g>
			<path class="st0" d="M26.26,90.78c-1.48-1.54-3.03-3.02-4.51-4.56c-2.47-2.58-3.55-5.67-3.28-9.25c0.05-0.67,0.14-1.34,0.22-2.04
				c-0.11,0.06-0.16,0.07-0.19,0.1c-0.07,0.07-0.15,0.14-0.21,0.23c-1.35,2.15-2.02,4.5-1.93,7.05c0.11,3.15,1.42,5.73,3.56,7.99
				c1.76,1.85,2.15,4.09,1.37,6.54c-0.43,1.33-1.31,2.31-2.46,3.25c1.83,1.11,3.62,1.38,5.48,0.59c1.68-0.71,3.15-2.44,3.68-4.39
				C28.35,94.43,27.81,92.4,26.26,90.78z"/>
			<path class="st0" d="M29.93,88.94c0.03-0.92-0.1-1.77-0.48-2.44c-0.94-1.67-2.03-3.25-2.9-4.97c-2-3.96-0.49-9.18,3.01-10.32
				c-3.93-0.23-5.81,2.19-6.06,2.54c-0.02,0.02-0.03,0.04-0.03,0.04c-2.25,3.22-1.54,6.9,1.19,9.71c1.65,1.7,3.39,3.32,4.96,5.09
				C29.73,88.7,29.83,88.82,29.93,88.94z"/>
			<path class="st0" d="M47.5,81.25c14.36-7.31,16.93-10.42,17.75-11.31c0.6-0.64,0.75-1.15,0.79-1.3c0-2.17,0-3.73,0-5.91
				c-1.1,1.74-3.58,3.61-8.54,6.43c-1.52,0.86-9.88,5.07-15.6,8.71c-2.64,1.68-5.99,4.6-6.83,5.43c-0.09,0.09-0.24,0.01-0.22-0.12
				c0.21-1.75,0.63-3.44,1.4-4.85c1.85-3.37,5.78-5.26,9-7.11c4.22-2.43,12-6.42,12.09-6.47c-0.03-0.56-0.25-0.89-0.83-1.15
				c-6.12-2.74-12.5-4.44-19.19-5.01c-1.57-0.13-3.14-0.2-4.71-0.21c-1.56,0.01-3.13,0.08-4.71,0.21
				c-6.68,0.57-13.06,2.27-19.19,5.01c-0.64,0.29-0.84,0.65-0.84,1.33C7.9,70.16,7.9,75.38,7.9,80.61c0,0,0,0,0.01-0.01v2.49
				c0.01,0.25,0.02,0.51,0.02,0.76c0.17,4.85,2.26,9.01,5.67,12.46c0.97,0.99,2.47,1,3.38,0.09c0.96-0.97,0.97-2.44-0.03-3.47
				c-2.01-2.08-3.43-4.48-4.11-7.32c-1.15-4.79-0.02-9.06,2.56-13.17c1.49-2.38,2.51-3.22,3.19-3.8c-0.66-0.83-1.33-1.59-1.86-2.44
				c-0.71-1.11-1.7-3.04-1.12-4.28c0.23-0.48,0.57,0.27,0.93,0.65c1.15,1.21,2.1,1.4,3.06,1.56c1.2,0.2,2.14,0.2,3.24,0.25
				c2.11,0.08,4.23,0.11,6.3,0.61c1.31,0.31,2.56,0.76,3.34,2c0.08,0.13,0.27,0.18,0.42,0.25c0.77,0.37,1.58,0.66,2.3,1.1
				c2.05,1.26,2.09,3.44,1,5.61c-0.08,0.16-0.85,1.52-1.12,1.32c-0.05-0.04-0.05-0.13-0.02-0.29c0.18-0.81,0.05-1.56-0.43-2.05
				c-0.87-0.87-2.6-0.58-4.01,0.63c-0.12,0.1-0.24,0.21-0.36,0.33c-0.59,0.6-1.01,1.27-1.23,1.93c-0.13,0.47-0.19,0.99-0.16,1.57
				c0.05,0.86,0.31,1.85,0.86,3c1.02,2.13,2.15,3.08,3.12,4.96c1.02,1.98,1.21,4.23,0.66,6.29C34.09,89.55,42.4,83.85,47.5,81.25z"
				/>
			<path class="st0" d="M30.18,68.89c0.38,0,0.77,0,1.15,0c0.25,0,0.35-0.11,0.24-0.37c-0.33-0.74-0.8-1.33-1.65-1.45
				c-0.88-0.12-1.76-0.01-2.64-0.05c-0.02,0-0.03,0.01-0.03,0.03c0.12,0.95,0.95,1.74,1.9,1.82C29.49,68.9,30.18,68.89,30.18,68.89z
				"/>
			<path class="st0" d="M61.27,90.12c-0.01,0.09-0.98,6.23-2.94,9.5c-1.69,2.83-4.9,8.66-11.89,12.26
				c-2.74,1.41-6.32,1.54-8.47-0.11c-0.19-0.15-0.37-0.32-0.53-0.49c-0.03-0.03-0.06-0.06-0.08-0.09l0,0
				c-0.48-0.54-1.42-2.04-1.03-4.65c1.08-7.31,8.42-11.75,10.05-12.77C54.09,88.95,66,82.89,66.05,80.91c0-2.44-0.01-7.73-0.01-7.73
				s0,3.62-17.86,12.56c-4.92,2.46-16.96,9.81-17.42,19.94c-0.09,1.86,0.45,3.53,1.22,5.1c0.11,0.23,0.24,0.46,0.38,0.69
				c0.07,0.12,0.15,0.23,0.22,0.34c1.12,1.75,2.53,2.5,2.53,2.5s-0.2,0.04-0.57,0.07c-1.19,0.13-4.2,0.29-8.19-0.62h-0.01
				c-0.4-0.09-0.78-0.18-1.14-0.27c-1.84-0.46-3.11-0.91-4.62-1.66l-0.7-0.31c-1.56-0.78-3.04-1.72-4.43-2.8
				c-0.15-0.11-0.29-0.22-0.42-0.32c-0.55-0.44-0.85-0.71-0.85-0.71l0,0c-1.25-1.1-2.43-2.32-3.53-3.66
				c-2.43-2.98-4.18-6.22-5.23-9.72c-0.6-1.95-0.98-3.97-1.15-6.06c-0.07-0.85-0.11-1.71-0.11-2.56c-0.01-7.7,0-15.4-0.02-23.1
				c0-0.74,0.22-1.14,0.88-1.47c5.26-2.59,10.76-4.43,16.51-5.48c3.29-0.6,6.62-0.92,9.98-0.99c0.36-0.01,0.72-0.01,1.08-0.01l0,0
				l0,0c0.36,0,0.72,0.01,1.08,0.01c3.36,0.07,6.68,0.39,9.98,0.99c5.75,1.06,11.25,2.89,16.51,5.48c0.5,0.25,0.75,0.54,0.84,0.98
				c0.96-0.54,4.15-2.39,4.93-3.36c0.02-0.03,0.01-0.06-0.01-0.09c-0.14-0.27-0.44-0.39-0.55-0.45c-6.73-3.39-13.82-5.62-21.24-6.77
				c-4.19-0.65-8.41-0.89-12.65-0.8c-3.86,0.08-7.68,0.44-11.46,1.14c-6.61,1.21-12.93,3.33-18.97,6.3
				c-0.77,0.38-1.02,0.84-1.02,1.69c0.03,8.85,0.01,17.69,0.02,26.54c0,0.98,0.05,1.96,0.13,2.94c0.44,5.45,2.15,10.49,5.15,15.02
				c5.49,8.3,13.12,13.33,22.96,14.84c4.53,0.69,9.01,0.43,13.42-0.79c6.78-1.87,12.43-5.57,16.87-11.06
				c4.89-6.04,7.4-12.98,7.44-20.79c0-0.17,0-0.34,0-0.5C64.79,87.52,63.06,88.59,61.27,90.12z"/>
			<path class="st0" d="M40.76,108.03c1.16,1.66,3.36,0.75,4.3,0.26c2.99-1.56,5.06-3.49,7.09-6.02c3.87-4.83,4.73-9.32,4.87-9.92
				c-1.3,0.62-8.12,4.52-11.16,6.96C41.12,103.12,39.82,106.69,40.76,108.03z"/>
			<path class="st0" d="M21.32,105.03c-2.62-0.2-4.8-1.44-6.88-2.86c-0.36-0.24-0.7-0.49-1.04-0.74c0.15,0.19,0.31,0.38,0.47,0.57
				c1.79,2.12,3.82,3.89,6.1,5.27c0.57,0.32,1.24,0.67,2.03,1.06c0.25,0.12,0.51,0.25,0.79,0.38c0.02,0.01,0.03,0.02,0.05,0.02
				c2.66,1.24,4.86,1.61,4.86,1.61s-1.25-2.52-0.78-6.45C25.27,104.78,23.36,105.19,21.32,105.03z"/>
		</g>
	</g>
</g>
</svg>
