<svg width="432" height="451" viewBox="0 0 432 451" fill="none" xmlns="http://www.w3.org/2000/svg">
<path d="M16.3419 65.2199L122.032 26.4299L234.272 14.8799L364.542 40.0499L409.602 58.6199L430.732 53.5799L431.112 76.0099L431.062 234.85L403.052 310.33L341.602 400.29L232.632 435.78L106.722 407.72L32.7319 311.16L11.4219 193.15V95.7599L16.3419 65.2199Z" fill="#051D49"/>
<path d="M171.403 263.04C161.763 252.96 151.643 243.35 141.983 233.29C125.853 216.46 118.783 196.25 120.573 172.93C120.903 168.55 121.503 164.2 122.003 159.58C121.303 159.94 120.963 160.03 120.743 160.24C120.263 160.7 119.753 161.18 119.403 161.74C110.573 175.79 106.193 191.09 106.793 207.75C107.523 228.3 116.033 245.16 130.043 259.9C141.523 271.99 144.103 286.61 138.973 302.6C136.193 311.27 130.453 317.69 122.943 323.8C134.873 331.07 146.583 332.78 158.693 327.65C169.623 323.02 179.253 311.75 182.693 298.99C185.023 286.92 181.523 273.62 171.403 263.04Z" fill="url(#paint0_linear_1514_64)"/>
<path d="M195.312 251.07C195.512 245.05 194.672 239.54 192.202 235.14C186.072 224.23 178.922 213.9 173.292 202.72C160.262 176.87 170.082 142.78 192.922 135.34C167.252 133.81 154.972 149.67 153.362 151.89C153.252 152.05 153.182 152.14 153.172 152.15C138.512 173.16 143.112 197.2 160.952 215.54C171.732 226.63 183.072 237.2 193.352 248.75C194.032 249.51 194.672 250.28 195.312 251.07Z" fill="url(#paint1_linear_1514_64)"/>
<path d="M310.04 200.88C403.77 153.15 420.54 132.85 425.95 127.02C429.83 122.83 430.85 119.49 431.08 118.53C431.08 104.36 431.08 94.1498 431.1 79.9698C423.89 91.3298 407.74 103.55 375.33 121.97C365.41 127.61 310.8 155.07 273.47 178.81C256.26 189.75 234.34 208.85 228.86 214.27C228.26 214.86 227.31 214.34 227.41 213.49C228.78 202.09 231.52 191.02 236.57 181.81C248.63 159.82 274.29 147.5 295.32 135.36C322.86 119.47 373.68 93.4598 374.25 93.0998C374.03 89.4198 372.63 87.2998 368.83 85.6098C328.85 67.7498 287.21 56.6198 243.57 52.9198C233.3 52.0498 223.06 51.5998 212.85 51.5498C202.63 51.5998 192.39 52.0498 182.13 52.9198C138.49 56.6098 96.8502 67.7498 56.8702 85.6098C52.6802 87.4798 51.4002 89.8598 51.4102 94.2898C51.5102 128.42 51.4802 162.54 51.4802 196.67C51.4902 196.66 51.5102 196.65 51.5302 196.64V212.87C51.5802 214.53 51.6302 216.19 51.6902 217.85C52.8002 249.48 66.4702 276.67 88.7002 299.19C95.0502 305.62 104.86 305.71 110.78 299.75C117.06 293.43 117.09 283.84 110.57 277.1C97.4402 263.53 88.1802 247.86 83.7402 229.33C76.2402 198.06 83.6402 170.19 100.43 143.33C110.15 127.77 116.79 122.32 121.25 118.55C116.91 113.14 112.59 108.16 109.1 102.65C104.5 95.3798 98.0202 82.7798 101.82 74.6898C103.29 71.5598 105.55 76.4698 107.9 78.9198C115.42 86.7898 121.6 88.0698 127.87 89.1198C135.68 90.4298 141.84 90.4598 149.02 90.7198C162.82 91.2298 176.62 91.4598 190.14 94.6798C198.71 96.7198 206.84 99.6298 211.92 107.71C212.43 108.53 213.71 108.91 214.68 109.37C219.7 111.76 225.01 113.66 229.72 116.55C243.09 124.75 243.36 139 236.24 153.2C235.71 154.25 230.67 163.15 228.91 161.82C228.56 161.56 228.56 160.99 228.78 159.91C229.97 154.59 229.13 149.7 225.97 146.54C220.26 140.83 209 142.77 199.81 150.66C199.02 151.34 198.24 152.06 197.48 152.83C193.64 156.73 190.91 161.14 189.43 165.43C188.57 168.48 188.18 171.89 188.42 175.71C188.77 181.33 190.47 187.82 194.04 195.26C200.7 209.14 208.06 215.35 214.41 227.67C221.07 240.61 222.32 255.29 218.74 268.73C222.45 255.04 276.74 217.84 310.04 200.88Z" fill="url(#paint2_linear_1514_64)"/>
<path d="M196.483 119.56C198.733 119.56 200.993 119.58 203.243 119.55C204.743 119.53 205.283 118.88 204.633 117.38C202.713 113 199.943 109.57 194.923 108.86C189.753 108.12 184.533 108.79 179.343 108.56C179.243 108.56 179.163 108.64 179.173 108.74C179.903 114.32 184.803 119.02 190.393 119.48C192.413 119.64 196.483 119.56 196.483 119.56Z" fill="url(#paint3_linear_1514_64)"/>
<path d="M399.952 258.76C399.852 259.34 393.562 299.44 380.772 320.79C369.722 339.25 348.762 377.3 303.152 400.84C285.272 410.07 261.912 410.92 247.872 400.13C246.612 399.16 245.472 398.07 244.402 396.91C244.222 396.72 244.042 396.53 243.862 396.33C243.852 396.32 243.852 396.32 243.842 396.31C240.702 392.8 234.562 382.99 237.082 365.96C244.152 318.26 292.032 289.24 302.702 282.57C353.022 251.12 430.762 211.55 431.122 198.63C431.112 182.68 431.082 148.14 431.082 148.14C431.082 148.14 431.102 171.8 314.472 230.11C282.372 246.16 203.762 294.17 200.732 360.27C200.172 372.43 203.662 383.3 208.722 393.56C209.472 395.08 210.292 396.57 211.192 398.03C211.652 398.78 212.142 399.52 212.632 400.25C219.922 411.67 229.152 416.55 229.152 416.55C229.152 416.55 227.832 416.78 225.442 417.03C217.642 417.85 198.012 418.91 171.972 412.96C171.942 412.95 171.922 412.95 171.902 412.94C169.272 412.34 166.812 411.75 164.492 411.17C152.502 408.16 144.162 405.23 134.342 400.32L129.792 398.3C119.592 393.2 109.972 387.08 100.902 380.03C99.9218 379.29 99.0018 378.59 98.1918 377.96C94.5718 375.12 92.6718 373.34 92.6718 373.34C84.5018 366.19 76.8318 358.21 69.6618 349.44C53.7618 330 42.3718 308.83 35.4918 286.02C31.5718 273.31 29.0618 260.11 27.9718 246.45C27.5318 240.9 27.2518 235.32 27.2418 229.75C27.1918 179.49 27.2718 129.23 27.1118 78.9699C27.0918 74.1599 28.5418 71.5199 32.8818 69.3799C67.1918 52.4799 103.102 40.4699 140.652 33.5799C162.152 29.6299 183.872 27.5799 205.772 27.1099C208.132 27.0599 210.492 27.0299 212.852 27.0199H212.862H212.872C215.232 27.0299 217.592 27.0599 219.952 27.1099C241.862 27.5699 263.572 29.6299 285.072 33.5799C322.612 40.4699 358.522 52.4799 392.842 69.3799C396.122 70.9899 397.742 72.8899 398.332 75.7799C404.572 72.2699 425.402 60.1899 430.492 53.8799C430.632 53.6999 430.552 53.4999 430.442 53.2999C429.502 51.5499 427.592 50.7299 426.852 50.3499C382.932 28.2499 336.642 13.6599 288.172 6.13989C260.822 1.89989 233.292 0.329892 205.582 0.919892C180.412 1.44989 155.452 3.81989 130.742 8.34989C87.5918 16.2899 46.3218 30.0799 6.90177 49.4999C1.90177 51.9599 0.251764 54.9899 0.261764 60.5199C0.451764 118.27 0.351764 176.03 0.411764 233.78C0.421764 240.18 0.731764 246.59 1.25176 252.97C4.10176 288.55 15.2718 321.44 34.8418 351.05C70.6718 405.26 120.502 438.06 184.762 447.91C214.312 452.44 243.602 450.71 272.362 442.76C316.632 430.53 353.532 406.38 382.522 370.57C414.422 331.16 430.802 285.84 431.062 234.85C431.072 233.76 431.072 232.66 431.072 231.57C422.942 241.77 411.632 248.81 399.952 258.76Z" fill="url(#paint4_linear_1514_64)"/>
<path d="M266.032 375.7C273.602 386.55 287.972 380.61 294.132 377.39C313.652 367.22 327.172 354.59 340.402 338.07C365.642 306.55 371.282 277.23 372.202 273.33C363.732 277.38 319.202 302.82 299.352 318.75C268.362 343.61 259.922 366.95 266.032 375.7Z" fill="url(#paint5_linear_1514_64)"/>
<path d="M139.144 356.09C122.054 354.77 107.824 346.66 94.2136 337.41C91.8936 335.83 89.6436 334.21 87.4336 332.56C88.4336 333.81 89.4536 335.06 90.4936 336.3C102.164 350.16 115.444 361.72 130.324 370.68C134.034 372.77 138.394 375.07 143.594 377.61C145.234 378.41 146.954 379.23 148.754 380.08C148.874 380.13 148.974 380.18 149.094 380.24C166.474 388.36 180.804 390.73 180.804 390.73C180.804 390.73 172.664 374.25 175.734 348.64C164.944 354.47 152.424 357.12 139.144 356.09Z" fill="url(#paint6_linear_1514_64)"/>
<defs>
<linearGradient id="paint0_linear_1514_64" x1="-37.7318" y1="245.098" x2="473.953" y2="245.098" gradientUnits="userSpaceOnUse">
<stop stop-color="#F6EA90"/>
<stop offset="0.11" stop-color="#AF7D2C"/>
<stop offset="0.1318" stop-color="#B98A35"/>
<stop offset="0.1868" stop-color="#CEA548"/>
<stop offset="0.2468" stop-color="#DFBA57"/>
<stop offset="0.3137" stop-color="#EAC962"/>
<stop offset="0.3929" stop-color="#F1D168"/>
<stop offset="0.5156" stop-color="#F3D46A"/>
<stop offset="0.6097" stop-color="#F1D168"/>
<stop offset="0.6836" stop-color="#E9C761"/>
<stop offset="0.7507" stop-color="#DCB655"/>
<stop offset="0.8136" stop-color="#CA9F44"/>
<stop offset="0.8731" stop-color="#B2812F"/>
<stop offset="0.88" stop-color="#AF7D2C"/>
<stop offset="0.9532" stop-color="#DBB554"/>
<stop offset="1" stop-color="#F3D46A"/>
</linearGradient>
<linearGradient id="paint1_linear_1514_64" x1="-37.7324" y1="193.149" x2="473.953" y2="193.149" gradientUnits="userSpaceOnUse">
<stop stop-color="#F6EA90"/>
<stop offset="0.11" stop-color="#AF7D2C"/>
<stop offset="0.1318" stop-color="#B98A35"/>
<stop offset="0.1868" stop-color="#CEA548"/>
<stop offset="0.2468" stop-color="#DFBA57"/>
<stop offset="0.3137" stop-color="#EAC962"/>
<stop offset="0.3929" stop-color="#F1D168"/>
<stop offset="0.5156" stop-color="#F3D46A"/>
<stop offset="0.6097" stop-color="#F1D168"/>
<stop offset="0.6836" stop-color="#E9C761"/>
<stop offset="0.7507" stop-color="#DCB655"/>
<stop offset="0.8136" stop-color="#CA9F44"/>
<stop offset="0.8731" stop-color="#B2812F"/>
<stop offset="0.88" stop-color="#AF7D2C"/>
<stop offset="0.9532" stop-color="#DBB554"/>
<stop offset="1" stop-color="#F3D46A"/>
</linearGradient>
<linearGradient id="paint2_linear_1514_64" x1="-37.7342" y1="177.848" x2="473.951" y2="177.848" gradientUnits="userSpaceOnUse">
<stop offset="0.0365" stop-color="#F3D46A"/>
<stop offset="0.0411" stop-color="#EDCD65"/>
<stop offset="0.066" stop-color="#D2AA4C"/>
<stop offset="0.0895" stop-color="#BF913A"/>
<stop offset="0.1109" stop-color="#B38230"/>
<stop offset="0.1283" stop-color="#AF7D2C"/>
<stop offset="0.1582" stop-color="#B88935"/>
<stop offset="0.2524" stop-color="#D2A94C"/>
<stop offset="0.3429" stop-color="#E4C15C"/>
<stop offset="0.4274" stop-color="#EFCF67"/>
<stop offset="0.4997" stop-color="#F3D46A"/>
<stop offset="0.5691" stop-color="#EFD067"/>
<stop offset="0.6454" stop-color="#E5C25D"/>
<stop offset="0.7248" stop-color="#D4AC4E"/>
<stop offset="0.806" stop-color="#BC8E38"/>
<stop offset="0.8439" stop-color="#AF7D2C"/>
<stop offset="0.8918" stop-color="#E2CB73"/>
<stop offset="0.9141" stop-color="#F6EA90"/>
</linearGradient>
<linearGradient id="paint3_linear_1514_64" x1="5.40737" y1="114.039" x2="421.024" y2="114.039" gradientUnits="userSpaceOnUse">
<stop stop-color="#F6EA90"/>
<stop offset="0.11" stop-color="#AF7D2C"/>
<stop offset="0.1318" stop-color="#B98A35"/>
<stop offset="0.1868" stop-color="#CEA548"/>
<stop offset="0.2468" stop-color="#DFBA57"/>
<stop offset="0.3137" stop-color="#EAC962"/>
<stop offset="0.3929" stop-color="#F1D168"/>
<stop offset="0.5156" stop-color="#F3D46A"/>
<stop offset="0.6097" stop-color="#F1D168"/>
<stop offset="0.6836" stop-color="#E9C761"/>
<stop offset="0.7507" stop-color="#DCB655"/>
<stop offset="0.8136" stop-color="#CA9F44"/>
<stop offset="0.8731" stop-color="#B2812F"/>
<stop offset="0.88" stop-color="#AF7D2C"/>
<stop offset="0.9532" stop-color="#DBB554"/>
<stop offset="1" stop-color="#F3D46A"/>
</linearGradient>
<linearGradient id="paint4_linear_1514_64" x1="0.262364" y1="225.593" x2="431.128" y2="225.593" gradientUnits="userSpaceOnUse">
<stop offset="0.0365" stop-color="#F3D46A"/>
<stop offset="0.0411" stop-color="#EDCD65"/>
<stop offset="0.066" stop-color="#D2AA4C"/>
<stop offset="0.0895" stop-color="#BF913A"/>
<stop offset="0.1109" stop-color="#B38230"/>
<stop offset="0.1283" stop-color="#AF7D2C"/>
<stop offset="0.1582" stop-color="#B88935"/>
<stop offset="0.2524" stop-color="#D2A94C"/>
<stop offset="0.3429" stop-color="#E4C15C"/>
<stop offset="0.4274" stop-color="#EFCF67"/>
<stop offset="0.4997" stop-color="#F3D46A"/>
<stop offset="0.5827" stop-color="#EFD067"/>
<stop offset="0.6739" stop-color="#E5C25D"/>
<stop offset="0.7689" stop-color="#D4AC4E"/>
<stop offset="0.8659" stop-color="#BC8E38"/>
<stop offset="0.9112" stop-color="#AF7D2C"/>
<stop offset="0.9558" stop-color="#E2CB73"/>
<stop offset="0.9765" stop-color="#F6EA90"/>
</linearGradient>
<linearGradient id="paint5_linear_1514_64" x1="-37.7326" y1="327.635" x2="473.953" y2="327.635" gradientUnits="userSpaceOnUse">
<stop stop-color="#F6EA90"/>
<stop offset="0.11" stop-color="#AF7D2C"/>
<stop offset="0.1318" stop-color="#B98A35"/>
<stop offset="0.1868" stop-color="#CEA548"/>
<stop offset="0.2468" stop-color="#DFBA57"/>
<stop offset="0.3137" stop-color="#EAC962"/>
<stop offset="0.3929" stop-color="#F1D168"/>
<stop offset="0.5156" stop-color="#F3D46A"/>
<stop offset="0.6097" stop-color="#F1D168"/>
<stop offset="0.6836" stop-color="#E9C761"/>
<stop offset="0.7507" stop-color="#DCB655"/>
<stop offset="0.8136" stop-color="#CA9F44"/>
<stop offset="0.8731" stop-color="#B2812F"/>
<stop offset="0.88" stop-color="#AF7D2C"/>
<stop offset="0.9532" stop-color="#DBB554"/>
<stop offset="1" stop-color="#F3D46A"/>
</linearGradient>
<linearGradient id="paint6_linear_1514_64" x1="-37.7308" y1="361.643" x2="473.954" y2="361.643" gradientUnits="userSpaceOnUse">
<stop stop-color="#F6EA90"/>
<stop offset="0.11" stop-color="#AF7D2C"/>
<stop offset="0.1318" stop-color="#B98A35"/>
<stop offset="0.1868" stop-color="#CEA548"/>
<stop offset="0.2468" stop-color="#DFBA57"/>
<stop offset="0.3137" stop-color="#EAC962"/>
<stop offset="0.3929" stop-color="#F1D168"/>
<stop offset="0.5156" stop-color="#F3D46A"/>
<stop offset="0.6097" stop-color="#F1D168"/>
<stop offset="0.6836" stop-color="#E9C761"/>
<stop offset="0.7507" stop-color="#DCB655"/>
<stop offset="0.8136" stop-color="#CA9F44"/>
<stop offset="0.8731" stop-color="#B2812F"/>
<stop offset="0.88" stop-color="#AF7D2C"/>
<stop offset="0.9532" stop-color="#DBB554"/>
<stop offset="1" stop-color="#F3D46A"/>
</linearGradient>
</defs>
</svg>
